/* XPM */
static char *eba2d9f49a054988e9cf3d6499031758dTVYPjxhbqGIsXzG[] = {
/* columns rows colors chars-per-pixel */
"50 50 146 2 ",
"   c #3A6F26",
".  c #3C7227",
"X  c #3C7429",
"o  c #426C28",
"O  c #45742D",
"+  c #4C732E",
"@  c #447A2C",
"#  c #4E7633",
"$  c #457C33",
"%  c #4C7C32",
"&  c #517631",
"*  c #547B35",
"=  c #587C35",
"-  c #547E38",
";  c #4E873B",
":  c #558235",
">  c #5B8533",
",  c #558937",
"<  c #52823B",
"1  c #5B843B",
"2  c #568A3B",
"3  c #5D8A3D",
"4  c #61853D",
"5  c #618B3D",
"6  c #4E8840",
"7  c #5B8442",
"8  c #538C44",
"9  c #5C8C43",
"0  c #5B8E49",
"q  c #569040",
"w  c #5F9345",
"e  c #52954D",
"r  c #5C974C",
"t  c #5D994C",
"y  c #5D9D54",
"u  c #628743",
"i  c #638942",
"p  c #698E44",
"a  c #6B8D49",
"s  c #639546",
"d  c #699744",
"f  c #649945",
"g  c #6D9945",
"h  c #63934B",
"j  c #6C944A",
"k  c #659C4A",
"l  c #6A9E4C",
"z  c #719E4C",
"x  c #669653",
"c  c #699451",
"v  c #629D53",
"b  c #6C9B53",
"n  c #679B58",
"m  c #6B9E5A",
"M  c #7F9152",
"N  c #769B52",
"B  c #739D58",
"V  c #7A9F5B",
"C  c #66A04B",
"Z  c #6AA14E",
"A  c #7AA44F",
"S  c #71AA4F",
"D  c #7EAA4B",
"F  c #64A153",
"G  c #6DA554",
"H  c #6DA954",
"J  c #63A25A",
"K  c #6BA15C",
"L  c #73A555",
"P  c #78A054",
"I  c #72AB55",
"U  c #7AA955",
"Y  c #73A65B",
"T  c #78A55A",
"R  c #73AC5A",
"E  c #7BAC5B",
"W  c #7CB156",
"Q  c #76B05C",
"!  c #7CB25B",
"~  c #7AA560",
"^  c #75AC60",
"/  c #7AAB62",
"(  c #77AD68",
")  c #7EB564",
"_  c #7EB56D",
"`  c #85945C",
"'  c #88925B",
"]  c #80AD5B",
"[  c #85B453",
"{  c #83B65A",
"}  c #8BB75C",
"|  c #85B95B",
" . c #8BB95B",
".. c #83A660",
"X. c #81AC65",
"o. c #89AF64",
"O. c #88AD68",
"+. c #96A167",
"@. c #82B362",
"#. c #8AB266",
"$. c #85B964",
"%. c #88BD61",
"&. c #85B46C",
"*. c #8AB56B",
"=. c #85BA68",
"-. c #8DBD6A",
";. c #90BB62",
":. c #90B46C",
">. c #8CBB71",
",. c #92BE70",
"<. c #ADA574",
"1. c #A8AC75",
"2. c #ADB479",
"3. c #B1BA7F",
"4. c #8EC266",
"5. c #8DC26C",
"6. c #94C265",
"7. c #92C26B",
"8. c #94C470",
"9. c #96C877",
"0. c #9CCA72",
"q. c #95C778",
"w. c #9ACC7B",
"e. c #BAB380",
"r. c #DCBD8E",
"t. c #DEBF90",
"y. c #CFC48F",
"u. c #DFC092",
"i. c #E3C495",
"p. c #E6C798",
"a. c #E8C799",
"s. c #E7C899",
"d. c #E9C99A",
"f. c #EACB9D",
"g. c #EBCB9D",
"h. c #EBCC9D",
"j. c #ECCD9F",
"k. c #EECEA0",
"l. c #F0CFA1",
"z. c #EFD0A2",
"x. c #F1D3A3",
"c. c #F2D2A3",
"v. c #F2D2A4",
"b. c #F3D3A5",
"n. c #F2D4A4",
"m. c #F4D5A6",
/* pixels */
"z.x.v.n.x.x.x.x.x.x.x.k.x.z.x.z.x.z.k.z.z.k.k.x.x.x.v.x.z.z.z.x.x.x.x.z.x.x.x.x.x.x.x.z.h.h.j.x.x.x.",
"x.x.x.z.k.x.x.x.z.z.z.x.z.x.x.z.x.x.x.x.x.x.x.x.v.v.x.k.x.x.x.x.z.x.x.x.x.x.x.x.x.j.d.s.s.d.h.z.v.x.",
"x.k.d.p.i.d.k.x.x.x.x.x.x.x.x.z.k.x.x.z.z.z.x.x.x.x.z.z.x.x.x.x.x.x.x.x.x.x.x.k.f.i.u.u.i.p.a.f.x.z.",
"x.k.d.t.r.t.d.x.k.x.x.l.x.k.x.k.k.x.x.x.x.z.x.x.x.z.x.x.l.j.j.x.x.v.x.z.z.x.k.h.i.t.r.i.p.d.s.d.k.z.",
"x.z.j.d.i.i.i.d.k.x.x.x.x.x.x.k.k.x.x.x.x.x.x.x.z.x.x.x.f.p.d.j.z.z.z.x.x.x.x.k.s.i.s.d.j.j.j.j.x.x.",
"z.z.x.v.x.f.i.i.x.x.x.x.x.z.x.z.j.h.h.j.z.x.z.x.x.x.v.z.d.i.i.p.s.f.k.x.x.v.x.x.x.z.x.x.x.z.x.x.x.z.",
"x.z.x.x.v.z.j.h.x.x.x.z.x.x.x.z.f.i.i.s.j.j.k.x.x.x.v.x.j.d.i.u.u.i.j.z.z.j.k.z.x.v.x.v.x.x.x.x.x.x.",
"x.x.z.k.k.x.x.v.x.x.x.x.x.x.z.j.i.u.u.i.i.p.h.x.x.x.x.x.x.k.s.i.i.d.k.x.j.d.d.h.z.x.z.k.x.x.x.x.x.x.",
"x.z.x.z.x.z.x.x.k.j.z.x.k.x.z.d.r.p.d.r.r.i.d.z.x.x.z.k.x.x.k.k.z.x.x.z.d.i.p.j.x.x.x.z.x.x.x.x.v.x.",
"x.x.x.z.k.k.x.x.j.i.i.f.x.x.x.j.d.k.j.s.p.d.k.x.x.x.k.k.x.x.x.x.z.z.z.z.j.h.j.k.z.k.x.x.x.x.x.z.j.h.",
"x.x.x.z.x.x.x.x.k.i.i.k.v.z.z.z.z.x.z.x.v.x.k.z.x.x.x.x.x.z.z.x.z.x.x.x.x.x.x.z.x.x.v.x.x.x.x.k.j.d.",
"x.x.x.x.x.l.x.x.z.h.j.v.x.j.k.v.m.x.k.z.v.x.j.z.z.x.x.x.x.k.z.x.x.v.x.x.x.x.x.z.x.x.z.j.j.z.z.z.x.k.",
"x.x.k.x.x.l.x.k.z.z.v.n.z.j.x.x.x.x.z.v.n.j.p.s.h.x.x.x.x.x.v.n.x.x.x.x.x.x.x.x.k.f.i.i.i.f.z.x.x.v.",
"x.x.k.x.x.x.x.x.n.x.x.k.j.x.v.z.j.k.z.k.h.i.i.i.f.x.x.x.z.x.x.j.f.h.k.x.x.x.x.x.j.h.u.t.u.i.f.k.k.x.",
"x.l.x.k.x.x.x.x.x.x.x.x.z.x.v.j.m.n.f.r.r.r.i.f.z.x.x.x.k.x.z.d.i.p.j.x.x.x.x.x.k.k.d.i.i.i.s.d.j.k.",
"v.x.k.x.x.x.x.k.s.f.z.x.z.z.x.x.k.v.h.i.t.i.d.k.x.x.x.x.x.v.x.f.i.p.j.k.x.x.x.x.z.v.x.x.j.d.s.f.x.x.",
"x.z.x.x.z.z.k.p.r.p.k.x.z.z.z.x.x.x.x.x.j.x.n.x.x.v.x.x.v.v.j.j.j.k.x.z.k.k.x.v.x.x.z.x.x.z.k.z.x.x.",
"z.x.v.x.x.x.j.d.i.i.u.u.i.k.x.x.x.x.v.v.x.x.x.x.x.x.x.v.x.j.p.p.f.z.x.x.v.x.x.z.z.z.x.z.x.z.z.x.x.x.",
"k.h.h.k.z.z.z.z.j.i.r.t.Y b Y @.! W { [ [ D D { { W I I S { { i.f.z.x.x.x.x.v.x.x.x.z.x.x.x.v.v.x.x.",
"d.i.i.j.x.z.x.x.k.h.d.f.b h s L E { | | | [  . .{ W I ! $.%.%.! I H F 2.y.3.z.z.j.x.z.x.x.k.x.x.k.x.",
"d.i.d.x.v.x.x.z.x.x.x.z.h 9 2 w l ! 4.6.6.6.} A g f f R 5.-.5.$.Z G v +.e.1.s.i.i.d.j.x.z.j.j.f.f.j.",
"x.z.j.f.j.x.x.x.x.x.x.x.h h w 1 : f { 7.0.;.g > > : @ 2 E -.-.L < 9 r b x e i.u.i.i.f.z.x.j.f.d.d.f.",
"x.x.s.i.s.z.x.x.x.k.z.x.m x < ' <.M f 8.0.A > j E T 9 @ h >.&.< O % 8 v J y i.i.p.s.j.z.x.k.k.j.f.j.",
"d.i.i.i.d.z.x.l.x.k.x.v.m n 0 ` <.M G w.,.p j o.,.*.Y 0 7 &.&.< . $ 8 J J y d.h.z.z.z.z.z.x.x.k.k.k.",
"r.r.i.f.z.z.x.x.x.x.x.x.n m v ; X @ G 9.#.5 N :.*.X.~ h < / >.h . O 6 y J y h.j.x.x.v.k.z.x.x.x.x.x.",
"u.i.f.z.x.x.x.z.z.x.x.z.( K 8 $ X . b q.#.1 p ..O.~ c < * j B 9 $   $ r v y x.x.k.x.v.x.x.x.x.x.k.x.",
"j.k.x.k.x.x.z.j.h.k.x.x._ Y 8 $ X ; / w.*.5 = a V B 7 O % 3 s 9 % % 8 v F v x.x.x.x.z.x.x.x.j.h.k.z.",
"x.z.z.z.x.x.k.d.i.f.l.x.) ^ G k q k =.9.*.j = = u u # o : z @.E f l I G F t x.x.x.x.k.x.x.z.j.h.j.d.",
"j.z.z.z.j.f.d.d.i.f.x.x.E L G R R R ) =.,.#.j = & & + # j ] -.7.$.$.) I k w x.x.x.x.v.v.x.z.x.z.h.s.",
"x.n.v.j.i.i.d.k.j.x.v.x.G k k R Q R R ! -.#.N 1 + + + - j P { -.-.-.E k f l x.x.k.j.j.k.z.x.n.x.j.j.",
"v.x.z.h.i.d.k.x.v.x.x.k.L k f G G C Z E E P j 4 = 1 - * 1 5 z U E E l , s L l.z.k.h.i.i.p.h.k.k.x.x.",
"z.k.z.z.j.z.x.x.x.x.x.k.x.v.x.j.d.j.k I E N j i i j i - : 3 d d d l f , s Y k.j.j.f.i.i.i.p.k.x.x.x.",
"x.x.x.k.j.x.x.x.x.x.x.l.x.v.k.d.i.d.k.x.z.x.x.x.x.x.z.j.k.v.x.x.x.x.x.x.x.x.z.f.s.p.p.p.s.h.k.x.x.x.",
"x.x.f.d.j.x.x.x.x.x.x.l.x.v.x.d.i.f.f.d.f.x.x.z.x.z.h.d.f.z.x.x.x.x.x.x.z.x.x.k.f.d.s.h.z.z.z.z.z.v.",
"x.j.d.p.d.j.z.x.x.x.x.l.x.v.x.j.h.z.d.i.s.j.x.x.x.x.h.i.i.s.j.k.k.k.x.x.z.x.x.x.j.f.j.z.x.x.z.z.z.x.",
"x.k.f.s.i.s.j.k.k.z.x.x.x.x.x.x.x.x.j.d.f.j.x.x.z.v.x.s.u.u.i.d.j.k.x.x.x.z.z.x.k.x.x.v.x.k.x.x.z.z.",
"v.x.j.d.d.i.s.s.s.j.x.x.x.x.x.x.z.x.k.j.z.z.k.x.x.x.x.z.f.i.i.p.j.k.x.x.x.z.z.x.x.x.z.x.x.k.x.x.z.x.",
"x.x.x.j.h.a.i.i.i.j.x.x.x.k.k.f.h.k.x.z.x.x.x.x.x.z.x.x.x.h.i.s.j.x.x.x.x.x.x.z.x.k.h.k.z.x.x.x.z.x.",
"l.k.x.v.k.d.i.i.d.j.x.x.k.j.a.i.i.j.x.z.x.x.x.x.x.x.x.z.x.x.j.j.l.x.x.z.z.x.x.x.x.k.h.j.j.j.z.x.k.x.",
"x.x.x.x.x.k.j.d.f.k.x.x.j.a.i.i.i.h.z.k.x.x.z.x.x.x.x.z.x.x.x.z.x.x.x.k.h.j.z.x.z.z.k.f.d.d.j.x.x.x.",
"x.x.x.j.j.l.x.x.x.x.x.k.d.i.i.i.p.f.x.x.z.z.x.x.v.z.v.x.z.x.x.k.x.z.x.z.h.s.s.f.j.z.x.j.d.d.j.x.z.x.",
"x.x.j.d.f.x.x.x.l.x.v.l.d.i.d.x.k.k.x.z.z.x.x.z.k.x.v.x.z.x.x.x.x.z.x.x.h.i.i.i.d.z.x.k.h.j.z.z.k.x.",
"x.z.d.a.f.l.x.x.x.v.x.x.f.h.j.x.x.z.x.v.z.z.x.z.j.z.z.x.x.h.h.k.x.k.x.x.z.d.i.i.i.d.j.k.x.x.x.z.k.x.",
"v.k.d.d.j.x.x.x.x.x.v.x.x.k.x.x.x.z.x.x.x.x.x.j.d.j.v.z.k.f.d.d.j.j.k.x.x.k.j.f.i.i.s.x.m.k.h.z.x.x.",
"x.x.j.f.j.x.x.x.x.x.x.x.x.x.x.l.x.z.z.z.z.x.x.j.s.d.x.z.f.f.d.i.i.d.j.z.x.x.k.j.d.s.d.x.x.h.f.z.x.x.",
"l.v.v.k.j.k.x.x.x.x.x.x.x.x.k.j.x.x.x.x.z.x.x.j.d.s.x.x.h.f.d.i.i.i.d.j.x.x.k.k.x.x.j.j.j.z.j.p.d.j.",
"x.x.x.j.f.k.l.x.x.l.x.x.l.k.j.d.k.j.z.x.z.x.x.x.k.j.x.x.j.s.p.d.d.i.i.s.h.z.x.z.x.z.j.f.k.v.j.i.i.f.",
"v.x.f.d.f.j.k.x.x.x.x.x.x.j.d.p.d.d.h.x.x.x.x.x.z.v.z.z.z.d.d.z.d.s.s.s.d.j.z.x.x.z.z.j.j.d.h.f.s.s.",
"x.x.f.i.a.f.k.x.x.x.x.x.x.j.d.p.s.p.f.k.z.x.x.z.z.x.z.x.x.z.z.x.k.k.z.z.k.j.j.x.x.x.x.j.s.s.j.x.j.p.",
"x.z.j.d.i.s.k.x.x.x.x.x.x.l.f.s.i.i.p.j.x.x.x.x.z.x.x.x.k.x.x.z.x.x.x.v.k.d.d.h.z.x.x.k.h.j.z.x.k.j."
};
