/* XPM */
static char *_8a9d830ea8b4df2b78d9e1155ccaf8eRea9bKsANJ17RoPo[] = {
/* columns rows colors chars-per-pixel */
"50 50 250 2 ",
"   c #27541D",
".  c #3D5B1F",
"X  c #29651F",
"o  c #39671E",
"O  c #385B29",
"+  c #3B5F31",
"@  c #2A5E28",
"#  c #2D6526",
"$  c #336A23",
"%  c #35642E",
"&  c #356B2D",
"*  c #3A6B2D",
"=  c #396527",
"-  c #3B722E",
";  c #357228",
":  c #3B6A33",
">  c #3A6934",
",  c #3D7432",
"<  c #3A7638",
"1  c #2F6031",
"2  c #1C530F",
"3  c #426B1D",
"4  c #425D26",
"5  c #485F31",
"6  c #42632C",
"7  c #446B2B",
"8  c #466925",
"9  c #44732B",
"0  c #4B732D",
"q  c #497629",
"w  c #517B2D",
"e  c #4B6535",
"r  c #446C32",
"t  c #4C6C35",
"y  c #4C6D3B",
"u  c #456837",
"i  c #546B3A",
"p  c #4C7334",
"a  c #427B33",
"s  c #4C7B33",
"d  c #42723B",
"f  c #477839",
"g  c #537433",
"h  c #557C33",
"j  c #597C34",
"k  c #53733C",
"l  c #547B3C",
"z  c #5B7C3C",
"x  c #5A713B",
"c  c #60793F",
"v  c #3A7640",
"b  c #4A6D42",
"n  c #4C7443",
"m  c #4C7D42",
"M  c #527A43",
"N  c #5B7C42",
"B  c #597644",
"V  c #637C48",
"C  c #5C8235",
"Z  c #56823B",
"A  c #5C833A",
"S  c #5C8A3C",
"D  c #558837",
"F  c #54963D",
"G  c #4A8B36",
"H  c #638D3D",
"J  c #648739",
"K  c #68963E",
"L  c #6CA03C",
"P  c #4B8844",
"I  c #5B8543",
"U  c #598A49",
"Y  c #589748",
"T  c #578352",
"R  c #5B9A53",
"E  c #4F9147",
"W  c #638442",
"Q  c #658949",
"!  c #649546",
"~  c #6C9345",
"^  c #6B9C45",
"/  c #6A934A",
"(  c #659C4B",
")  c #6C9D4C",
"_  c #629944",
"`  c #74944C",
"'  c #759A48",
"]  c #628B52",
"[  c #64955A",
"{  c #679B54",
"}  c #7A9D53",
"|  c #779B58",
" . c #708C52",
".. c #5BA64B",
"X. c #5DA353",
"o. c #5AA35A",
"O. c #6BAB46",
"+. c #62A44C",
"@. c #6DAC4C",
"#. c #6AA649",
"$. c #73A44C",
"%. c #76A848",
"&. c #6EB34B",
"*. c #64B04C",
"=. c #79B44D",
"-. c #63A353",
";. c #6BA556",
":. c #64AC52",
">. c #6BAB53",
",. c #6CA55A",
"<. c #62AC5D",
"1. c #67A75A",
"2. c #73A553",
"3. c #7BA554",
"4. c #73AB52",
"5. c #7AAC52",
"6. c #74AB5B",
"7. c #7BAA5B",
"8. c #7AA25C",
"9. c #6AB25B",
"0. c #74B554",
"q. c #7CB254",
"w. c #7CB35D",
"e. c #78B758",
"r. c #739B64",
"t. c #5EA364",
"y. c #7EB265",
"u. c #6EB164",
"i. c #7CC158",
"p. c #839E59",
"a. c #84A354",
"s. c #84AC5C",
"d. c #87A956",
"f. c #94AC5C",
"g. c #82B555",
"h. c #82BB54",
"j. c #83B55B",
"k. c #8CB35A",
"l. c #85BD5C",
"z. c #8BBB5C",
"x. c #8BB753",
"c. c #94B55D",
"v. c #96B65E",
"b. c #84B44B",
"n. c #A2AF5D",
"m. c #8AAB67",
"M. c #85B461",
"N. c #8BB564",
"B. c #8CBB63",
"V. c #87B26A",
"C. c #8AB967",
"Z. c #92BC65",
"A. c #93BC6A",
"S. c #98B765",
"D. c #8DB773",
"F. c #95BB75",
"G. c #94AB63",
"H. c #A3B96B",
"J. c #AABE72",
"K. c #85C15E",
"L. c #8BC35C",
"P. c #88C759",
"I. c #93C25E",
"U. c #90CA5D",
"Y. c #90D05E",
"T. c #8CC363",
"R. c #8CC762",
"E. c #92C363",
"W. c #93CB64",
"Q. c #95C46B",
"!. c #9BC46C",
"~. c #93CA6A",
"^. c #9CCC6A",
"/. c #99D36B",
"(. c #8EC171",
"). c #9CC473",
"_. c #9ACC74",
"`. c #98C577",
"'. c #9DD572",
"]. c #9ED47C",
"[. c #A9C577",
"{. c #B3CC7C",
"}. c #B9CD7D",
"|. c #B1C476",
" X c #B5D27D",
".X c #A1CD70",
"XX c #DBC778",
"oX c #C4C979",
"OX c #E3CC7B",
"+X c #E2D27A",
"@X c #B4CE83",
"#X c #B9D583",
"$X c #AFC680",
"%X c #C9DA86",
"&X c #DCDD8D",
"*X c #D2D587",
"=X c #CBDB94",
"-X c #CCD589",
";X c #E6D482",
":X c #EBD583",
">X c #ECDB85",
",X c #EDDD8B",
"<X c #E7D886",
"1X c #F2DD8C",
"2X c #F6DE8B",
"3X c #EADC91",
"4X c #F3DE92",
"5X c #F8DE91",
"6X c #CFE192",
"7X c #DEE392",
"8X c #D3E198",
"9X c #CDE08E",
"0X c #E1E58E",
"qX c #EEE38D",
"wX c #F4E38E",
"eX c #FAE28D",
"rX c #F5E489",
"tX c #E3E494",
"yX c #EDE493",
"uX c #E4EA95",
"iX c #ECE996",
"pX c #EBE69A",
"aX c #E7E99A",
"sX c #EBE99A",
"dX c #E5E499",
"fX c #F2E592",
"gX c #F5E492",
"hX c #F6E593",
"jX c #F6E591",
"kX c #F3E294",
"lX c #F6E394",
"zX c #F5E295",
"xX c #F2E695",
"cX c #F5E494",
"vX c #F4E594",
"bX c #F5E496",
"nX c #F6E696",
"mX c #F4E392",
"MX c #F9E292",
"NX c #F9E294",
"BX c #F9E296",
"VX c #F9E595",
"CX c #FAE492",
"ZX c #F3E994",
"AX c #F5E598",
"SX c #FAE599",
"DX c #F4EA99",
"FX c #F9E997",
"GX c #FAF097",
"HX c #EDEBA1",
/* pixels */
"yXvXhXmXwXwXhXfXqXZXxXZXmXNXBXBXvXxXfXfXfXxXxXfXxXxXxXxXvXvXvXvXvXfXkXfXvXvXvXkXkXvXvXvXfXfXvXvXvXvX",
"fXvXVXMXmXMXhXwXqXqXfXfXmXmXNXNXvXfXfXfXfXvXfXkXvXvXvXvXvXvXvXvXkXhXvXvXmXmXmXmXvXvXvXvXvXmXmXmXmXmX",
"vXlXNXMXMXMXmXwX,XqXxXxXlXlXNXNXNXmXmXlXNXNXmXmXNXNXNXNXNXNXNXNXlXNXNXNXlXlXlXNXNX5X4X5XNXNXNXvXmXmX",
"vXmXmXNXMXMXmXmXwXfXxXxXxXvXvXlXVXNXNXNXNXVXNXNXNXNXNXNXNXNXNXNXVXmXmXmXNXNXNXNXMX1X,X5XNXmXmXmXmXmX",
"vXvXhXhXCXmXmXhXfXZXxXyXyXxXxXxXvXvXkXkXkXlXlXlXlXlXlXlXlXlXlXlXhX>X>X>XwXhXwXwXhXwXwXwXwXwX>XwXmXmX",
"vXfXmXmX1X>X1XmXhXfXxXyXyXfXxXxXvXkXkXkXkXkXlXvXvXvXvXvXvXvXvXvXwX+X+X;XwXwXwXwXwXwXwXwXwXwXwXwXmXmX",
"mXwXwXwX:XOX:X2XeXwXmXmXkXhXhXmXvXmXkXkXkXmXmXlXlXlXlXlXlXlXlXhXwX>X:X>XwXwXwXwXwXwXwXwXhXwXhXhXmXmX",
"wXwXhXwX:XOX:X2XeXeXMXmXMXhXhXmXhXhXmXmXvXhXvXhXvXhXvXhXvXhXvXhXVXwXwXhXhXwXwXvXhXhXhXkXmXhXvXmXvXvX",
"wXwXwXwXqX>X>XwXwXCXwXwXCXhXwXwXwXhXfXwXvXFXhXwXhXwXqXwXvXhXwXhXmXSXlXkXlXvXkXvXlXAXbXlXAXlX4XSXvXvX",
"jXwXwXwXwXwXwXhXwXCXCXwXwX,X<X<XwXwXhXwXwXwXhXhXhXwX,XqXhXhXwXhX1XNXNXlXSXAX4X3XAXbX,X<X3XSXSXlXvXvX",
"wXqXqXwXqXqXfXfXhXVXVXhXhX1X<X<XmXhXVXhXmXmXhXhXvXhX1XwXhXhXhXhXCXCX2X>X1XhXVXFXlXmX;XXXOX2XNX4XmXmX",
"wXwXvXZXyXyXxXyXxXkXkXkXvXhXqX,XlXmXmXmXmXlXmXkXlXvXvXmXvXvXvXhXwXeXrX2XwXhXhXhX1XmX;XXXOX2XSXVXmXmX",
"2X5XlXkXyXyXpXyXxXyXyXbXxXxXxXDXlXlXvXvXAXvXvXvX,XvXvXkXkXkXkXfXwXCXhXwXwXwXqXqXvXZXyX<X,XkXlX4XmXmX",
"SXSX3X<X3XtX7X7XtXtXdXtX*X*X&XtXtXtXtXtX&X&X&X7X&XtXtX7X7X7XtXtX0XtXtXtXuX7X7XuX7X7X7XdXaXtXtXpXxXmX",
"tXtXoXn.f.v.S.!.v.v.S.S.d.a.k.S.S.S.c.c.v.c.c.v.k.c.k.d.d.k.k.k.N.A.!.[.).A.N.C.M.N.N.A.A.A.[.#XpXmX",
"aXuX|.' J C H 3.^ K ^ %.%.%.5.g.g.%.%.%.g.z.j.g.g.j.5.$.$.5.q.q.4.2.$.$.) F F Y -.-.{ U a 9 U m.aXmX",
"xXuX|.~ g g w H q.L.z.z.h.U.L.U.U.P.L.I.I.E.E.E.B.Q.(.w.w.l.L.U.W.T.E.z.E.R.e.9.9.u.E , * = a m.aXmX",
",XtXH.` p p / D 5.%.5.g.W.P.P.P.P.U.W.I.I.E.g.5.3.) 7.Y 6.e.K.W.L.l.E.E.z.l.0.:.9.<.E < * = f m.aXmX",
"GX0Xf./ ] [ ] U Z o Z 3.z.l.U.P.Y.U.I.Q.Z.H C 8 q p l - a ( q.L.K.K.Z.Z.).! F X.o.<.Y P , $ , V.sXmX",
"qX0XS.) U T T r.m = r 8.C.T.R./.U.W.!.Z.h h S Z W l M P , $ 2.3.g.W.!.!.D.7 2 X E u.-.P Y { R F.aXmX",
"jX0Xk.( { [ [ :   > 6 6 I w.R.W.W.~.N.j A A 8 A 3 h U - d f   ) z.^.!.N.z r * & < E R 1.Y P P `.aXmX",
"ZXuXA.( ;.{ P @ n u B e 7 w h./.'.Q.3.j j h 3.Z.Z.Q.(.9 f : y p j.^.!./ p + u % - # a 1.-.;.-.`.aXmX",
"wXtX{.Y @.+.$ # : O k e 7 s B.W.E._.A J W s.B.z.x.b.z.$.{ [ n N g.^.!.h z 6 u m m - G 9.>.+.Y Q.uXmX",
"wXiX X_ #.@.Y $ % y e t r.D.~.'.'.3.C 8 8.N.5.E.x.b.L.5.( y.r z ^ ^.)./ g k O O m { 1.-.-.9.F E.uXmX",
"hXiX@X_ #.#.9.,.] 6 4 i 6 { ^.'.W.%.C h | F.) E.I.%.=.%._ 7.8 A w Q.).D.| y + > % & { R X.:.F T.uXmX",
"wXiX X^ @.>.Y R T n y e y l B./.'.^ j W I D.) j.E.%.h.#._ ! 9 h w A.F.F.m.r B + n 1 P R Y ..F E.uXmX",
"mXiX{.2.4.-.X & T b y e 6 s Q.'._.2.W z N | `.^ E.%.q.K ;.$ l l 0 V./ | | k ] + T 1 v t.R ..Y B.uXmX",
"1XiX{.M.y.,.$ & % > b y p S R./.].7.l Q N k V.) k.^ M.S s f r l 7 V.9 s p M k y > @ < t.o.X.Y C.uXmX",
"vXiX XN.6.{ d - & < d r ,.M.l.'.].8.N Q N k W N.' 3./ I : d M M 7 7.9 Z l I l l * f E o.<.<.X.N.aXmX",
"vXtX XB.7.6.,.-.E - , 9 w.T.P./._.V.z N Q N 0 ~ } 8.| f : d n p S j.y.(.2.* Z 0 U ,.-.X.<.<.Y N.aXmX",
"AXtX#Xj.) 2.#.@...F ;.6.e.i.U.W.'._.j W W g . 8 4 Q y %   d M 7 %.L 5.~.`.7.s.H 4.e.*.....:.F N.aXmX",
"kXiX%Xk.^ 6.#.@.&.&.>.0.&.i.P.=.~./.N.8 z k W z N t M M d d = Z q.%.h.T.B._.B.T.l.i.&.i.*.:.G N.aXmX",
"wXyX%Xc.) 2._ >.e.@.0.&.&.=.q.O.h./.~.M.~ h g l l k M f * $ a 2.q.=.q.R.K.R.~.l.K.K.0.0.>.+.Y N.aXvX",
"wXyX-Xd.S ! 6.w.w.0.@.O.O.0.e.q.q.~.~.`.C.| N t k k t 7 s U ;.;.#.q.l.l.l.l.K.T.l.T.j.4.( D ( A.aXvX",
"xXsX-Xd.w s { Y y.w.@.@.@.4.4.7.C.N.) Q /  .V B 5 e e B Q I Q l H 3.3.3.B.Z.Z.A.N.M.) / w Z | @XaXvX",
"yXpX-Xp.j h | / 7.3.^ ^ $.2.2.s.s.a.J j z c x B x t i V k 4 6 8 o / 3.3.s.d.a.d.N.} } h h g 8.$XaXvX",
"xXyX*XH.a.} p.p.` ' ~ J K H ' f.a.d.} a.a.} ` } m.| p.` J J z j C ~ ~ J H ~ ) ~ / C 3.A A A 8.[.aXvX",
"wXyXaX&X8X8X=X=X}.J.S.H.%X6X6X=X9X%X}.}.|.J.J.|.J.J.}.|.{.#X}.{.H.{.@X{.H.H.[.J.H.S.J.J.f.H.G.|.pXmX",
"CXwXfXyXtXsXaXHXtXsXiXiXaXtXtXsXiXiXqXDXyXiXiXtXiXiXiXyXiXiXqXpXsXHXdXdXdXdXsXdXsXdXdXdXpXpXdXpXxXmX",
"rX2XrXFX,XxXxXyXfXFXkXhXkXZXqXvXmXMXwXCX>XwXhX>X>XVXwXwXCXrXMXmXkXAXkXlXAXkXkXvXkXSX,XSXvXkXAXvXmXmX",
"rXrXrXeXwXwXkXhXwXCXMXCXMXwXCXwXmXNXNXVXhXhXhXhXwXwXwXwXwXCXMXmXmXVXhXwXwXhXwXwXwXwXwXhXhXwXwXCXhXhX",
"rXeXeXeXeXMXhXwX2XeX2XMXMXeXCXVXlXlXlXlXlXxXfXfXhXhXmXkXhXMXwX1X1XwXhXwXwXwXwXwXwXwXwX>X>XwXwXCXhXhX",
"wXwXwX2X1XmXmXkXmXCXMXMX1X:X1XvXlXlXlXkXkXkXkXfXxXfXkXmXvXlX1X:X,XwXhXwXhXwXwXhXwXwXwX;X;XwXwXwXmXmX",
"yXfXwX<X>XwXvXfXfXFXVXlX:XXX;XkXlXlXlXlXkXkXkXxXfXfXkXfXhXhX4X,X,XkXhXmXhXmXwXhXwXwXhX<X<XwXwXwXmXmX",
"yXxXmX1X1XmXZXyXyXxXlXlX:XXX<XfXkXmXmXhXmXkXwXwXwXmXmXwXwXwXwXwXwXmXmXmXvXmXkXmXmXkXvXkXkXvXmXhXmXmX",
"yXxXvXMXMXCXfXyXyXxXkXlX5X,XkXfXwXwXwXwXwXwX1X,XmXhXhXwXwXwXwXwXmXhXkXkXvXmXkXhXvXwXvXmXmXwXwXhXmXmX",
"yXkXMXMXeXeXwXqXqXfXkXNXBXMXhXwXwXwXwXwXmXmXkX4XlXlXlXmXmXwXwXwXwXhXwXwXhXwX1XwXhXwXmXwXwXwX,XwXwXwX",
"vXmXMXeXeXeXwXwX<XqXmXNXwX2XhXwXwXwXwXmXhXlXvXVXlXmXmXmXmXhXhXwXwXhXhXhXwX1X,XwXhXwXCXwXwXwX,X1XwXwX",
"mXmXmXMXeXwXwXwXfXfXmXhXhXmXmXwXmXmXmXmXmXmXmXmXmXmXmXhXhXmXmXmXmXmXmXmXmXmXmXmXmXmXmXmXmXwXmXmXmXmX",
"mXmXmXmXmXmXmXmXmXmXmXhXhXmXmXmXmXmXmXmXmXmXmXmXmXmXmXhXhXmXmXmXmXmXmXmXmXmXmXmXmXmXmXmXmXmXmXmXmXmX"
};
