/* XPM */
static char *_dcd99ced65844dab7fcbd7bdefef218W2B55ltM0Sp93z1F[] = {
/* columns rows colors chars-per-pixel */
"50 50 234 2 ",
"   c #2C5C12",
".  c #3C6D1E",
"X  c #2F691C",
"o  c #396A22",
"O  c #3C7226",
"+  c #3C752A",
"@  c #3C7C30",
"#  c #446C1D",
"$  c #4B7A1C",
"%  c #426D26",
"&  c #4C6C27",
"*  c #446D2B",
"=  c #4E6D29",
"-  c #467323",
";  c #447926",
":  c #45742C",
">  c #4A742B",
",  c #497927",
"<  c #54752C",
"1  c #5C792B",
"2  c #5D6F31",
"3  c #4C7634",
"4  c #447B33",
"5  c #4A7B34",
"6  c #4D7D3A",
"7  c #427530",
"8  c #547433",
"9  c #547A32",
"0  c #597C35",
"q  c #5C7C3C",
"w  c #587539",
"e  c #556A2F",
"r  c #667D2C",
"t  c #657E38",
"y  c #46812F",
"u  c #55842A",
"i  c #4B8035",
"p  c #4E823C",
"a  c #4A8838",
"s  c #518734",
"d  c #548C34",
"f  c #53853B",
"g  c #5C823A",
"h  c #5A8B3D",
"j  c #578A38",
"k  c #5C903D",
"l  c #628334",
"z  c #63853C",
"x  c #638D3D",
"c  c #698835",
"v  c #758C3D",
"b  c #65923D",
"n  c #69923E",
"m  c #66993D",
"M  c #74933D",
"N  c #7A963F",
"B  c #5C8D41",
"V  c #588743",
"C  c #5C9A4B",
"Z  c #5A9446",
"A  c #5F9851",
"S  c #648C43",
"D  c #6A8948",
"F  c #748B48",
"G  c #619242",
"H  c #6B9344",
"J  c #659C45",
"K  c #6B954C",
"L  c #639A4E",
"P  c #6A9B4B",
"I  c #699749",
"U  c #749D44",
"Y  c #7B9C44",
"T  c #74944E",
"R  c #749C4D",
"E  c #7A9C4C",
"W  c #799345",
"Q  c #6B9D52",
"!  c #669752",
"~  c #749D52",
"^  c #799953",
"/  c #6BA14C",
"(  c #6AA84E",
")  c #76A14D",
"_  c #7AA44C",
"`  c #77AB4B",
"'  c #74B04E",
"]  c #6DA456",
"[  c #72A354",
"{  c #7BA353",
"}  c #7AAC52",
"|  c #7BA35B",
" . c #73AC5C",
".. c #7CAC5D",
"X. c #72A958",
"o. c #7BB355",
"O. c #7CAF63",
"+. c #74AC61",
"@. c #7CB963",
"#. c #7EB86B",
"$. c #849A4C",
"%. c #879947",
"&. c #859852",
"*. c #84A14D",
"=. c #87A74C",
"-. c #81A455",
";. c #8BAA54",
":. c #8CA55B",
">. c #85AC5D",
",. c #8AAD5B",
"<. c #86A357",
"1. c #91AC5B",
"2. c #97A856",
"3. c #84B45A",
"4. c #8DB45B",
"5. c #84B85D",
"6. c #8CBB5E",
"7. c #84B255",
"8. c #93B55C",
"9. c #9BB25B",
"0. c #93B95D",
"q. c #A0AF5C",
"w. c #A1B55E",
"e. c #84AD64",
"r. c #86A563",
"t. c #9CAE62",
"y. c #83B364",
"u. c #8BB363",
"i. c #84BB65",
"p. c #8CBB64",
"a. c #8ABC6B",
"s. c #89B76A",
"d. c #93B263",
"f. c #9DB662",
"g. c #9BBA62",
"h. c #94BE6C",
"j. c #97B768",
"k. c #8BBF74",
"l. c #96BB75",
"z. c #ADBB65",
"x. c #A7B66A",
"c. c #B4BD6A",
"v. c #B8BB68",
"b. c #A8BC72",
"n. c #A4AF6A",
"m. c #8DC26A",
"M. c #8CC367",
"N. c #94C36C",
"B. c #99C068",
"V. c #8DC371",
"C. c #93C473",
"Z. c #99C778",
"A. c #9ED079",
"S. c #A8C368",
"D. c #B4C46D",
"F. c #A4C877",
"G. c #BDCC75",
"H. c #B7C777",
"J. c #B9D279",
"K. c #C6C773",
"L. c #CBCD7C",
"P. c #C2CB7C",
"I. c #DECC7B",
"U. c #D5C576",
"Y. c #C4D37D",
"T. c #D3D87A",
"R. c #E4CE7D",
"E. c #E4D37E",
"W. c #9CCF84",
"Q. c #B6CC81",
"!. c #BECA84",
"~. c #BFD182",
"^. c #BCD78B",
"/. c #AACC82",
"(. c #C0CE83",
"). c #CEDB8D",
"_. c #C6D784",
"`. c #D3DA86",
"'. c #D1DB8B",
"]. c #DBDB8C",
"[. c #D9D487",
"{. c #DDDE91",
"}. c #D9DE95",
"|. c #E5D483",
" X c #EAD683",
".X c #EBDB86",
"XX c #EDD789",
"oX c #E2DE8C",
"OX c #ECDD8B",
"+X c #E6D884",
"@X c #F3DC85",
"#X c #F3DD8D",
"$X c #F8DE8D",
"%X c #F1D780",
"&X c #EDDE90",
"*X c #F4DE93",
"=X c #FADF93",
"-X c #CAE38D",
";X c #D5E28C",
":X c #D1E085",
">X c #CBE496",
",X c #DBE495",
"<X c #DCEA94",
"1X c #DEE399",
"2X c #D7E898",
"3X c #EDE187",
"4X c #E5E38B",
"5X c #EDE38D",
"6X c #EEE88D",
"7X c #E5E88F",
"8X c #F3E38E",
"9X c #FAE38D",
"0X c #F1E88F",
"qX c #F9E488",
"wX c #E4E594",
"eX c #ECE593",
"rX c #E4E995",
"tX c #ECE994",
"yX c #E4E599",
"uX c #ECE59A",
"iX c #E4EB9B",
"pX c #ECEA9B",
"aX c #F4E492",
"sX c #FAE393",
"dX c #F4E995",
"fX c #F9E994",
"gX c #F4E499",
"hX c #FAE59A",
"jX c #F3EA9A",
"kX c #FBEB99",
"lX c #E3F49E",
"zX c #EEECA2",
"xX c #F6E9A3",
"cX c #F9F0A1",
/* pixels */
"8XaXaXaXaXeXgXgXgXgXhXaXsX0X0X8XsXsX#XfXfX8XhX*XgXgXsX9X9X9XsXsXaX8XaXaXaXdXaXaX8XaXdXdXaXaXdXaXaXgX",
"sXaXaXaXdXdXaX5XOXgXhX#XgX8XaXaXdXkXaX5X5XdXgXhXdXdXsX9X9XsXsXsXaX8XaXaXaXaXaXaXdXaXdXdXgXaXaXaXaXaX",
"=XsXsXaX8X5X0XaXOXsXsX=XhXsXdXgXeXpXpXwX].].wXtXgXaXaXaXaXaXgXgXaXaXaXaXaXaXaXaXaX8XOXaXaXdXaXdXaXaX",
"=XsXsXaX8X8X8X8X8XsXsX#XgXgXeXwXlX-X~.b.$.v '.rXtXaXaXaXaXtXtXaXaX8X8XaXaXaXaXaXaXOXXXaXgXaXaXgXaXaX",
"hXgXaXsX9X9XqX@X8X9X8XgXuXyX,X;XB.6.-.R 9 # F.lXtXaXsXsXdXgXgXaXaXOX XXXaXdXaXaXsX8XaXaXaX#XOX*XaXaX",
"eXgXdXaX@X@X$X9X8XtXtXiX).H.1.-.M.M.P ~ ! K >.2XtXsXsXsXdXgXdXdX8X+XE. X8XaXaXaXaXaXaXdXdXaX*XaXaXaX",
"eXdXdXaX XR.|.OX7X:XH.S.,.{ { y.m.a.> * 6 ] [ -XtXsX9X9XdXgXgXgXaX.X XOXaXaXaXaXaXaXaXdXgXgXdXdXaXaX",
"dXeXeXeXOX[.K.c.w.g.4.5./ d ; s ..a.> * 4 A Q F.pXaX9X9XaXgXgXsXsX8X8XaXaXaXaXdXaXaXdXaXaXdXdXgXdXdX",
"8XfX5XoXL.n.<.u.p.N.N.J d P P h g l.r.8 : 4 ] >.,XgX.X8X0XtXgXhXaXaXaXaXaXaXaXaXaXdXdXaXdXdXaXdXdXgX",
"9X8XkX`.c c I G s.V.V.k I a.y.I g D F z : C  .I ).tX3X3X6XdXgXgXdXaXaX8X8XaXaXaXaXaXOX+XXXaXgXaXdXgX",
"qX%XtX<XE G i O f y.F.x { u.| K 9 6 K [ / @. .I b.wXdX0X5XaX=XhXgXaX8X#X#XaXaXaXaXaX|.U.I.OXdXgXaXaX",
"9X9XeX<XF.G O O o | /.z t -.>.S : 3 u.C.m.5./ l x.wXkXaX8XaX=XsXsXaX8X#X#X8XaXaXaXaX|.U.I.OXdXgXaXaX",
"qX8XtXiX^.{ Q B > 9 l.j.l < 9 3 % S { _ 7.U Y f._.jXgXaXaXsX=XsXsXaXaX8X8XaXaXaX8XaX*XOXaXdXaXaXaXaX",
"9X8XtXiX2Xd.R - # n h.h.R z 9 0 0 < 1 *.f.Y.<XrXoXgXgXhXgXsX9X9X9XaXaXaXaXaXaXaXaXaXaXdXsXdXaXdXaXaX",
"9XsXdXuXiXH.E n d ' o.i.a.R 8 t &.n.H.,XwXtX5XOX.XgXgXxXgXeX0X0X0X8XaXaXaXaXaX8XdXaXaXaXaXaXaXsXaXaX",
"sXsX*XuX{.,X;.U ' ' ` } _ -.b.!.}.uXzXwXgXaXsX9XsXgXuXxXyXtXtX4X0X0XaXaXaXaXaX8XaXaXaXaXdXdXaXdXaXaX",
"sX#XsXeXyX,Xx.c *.Y Y 9.Y.wXpXuXgXgXtXeXeXaXsX$X#XeXpX<XH.H.rXeX5X5XeXpXOXdXsX*XdXaX5XkX8XaXdXaXaXaX",
"=XsXhXeXeXpXG.%.q.D.`.rXtXeXaXaXsXsXgXeX0X9XsXsXkXtX<X_.M r 9.z.K.4XrXwXjXhX#XsX#XdXaX0X@XE.XXdXaXaX",
"sXaXgXaXeXpXwX`.wXwXwXpXjXdXdXaX$X@XXX5X8X9XsXsXaXpXlXg.n H E d.9.S.H.'.pXaXsXsXsXhXaX8X9XqXsXsXaXaX",
"aX#XsXdXgXeXeXjXjXpXtXeXeX5XaXaX$X XR..X8XsXsXsXgXwX2XE x , 9 >.0.0.g.9.z.`.4X5XeXgXaX8XqX@XsX#XaXaX",
"8X9XdXaXdXgXaXaX&XgXgXgXdXaXaXaX9X XE..XaXsXsXgXgXwXQ.{ h   : g N.B.F.B.8.8.%.H.].pXtXtX0XfXsX#XaXaX",
"aX8XaX8XaX#XXXsXhXsX*X*XaXdXaXaXsX9X5X0XdXaXaXgXwXyXb.~ h : 6 K Z.5.$ u u j 3.4.8.J._.;XrXeX&XkXaXaX",
"8XOXaXkXaXR.U.XX=XsXsXsX9X8X8X8X8X8X0X5X5X5XaXgXjX'.:.H , O : Z.a., ` ` m s s y.p.o.} N.^.2XgX*XaXaX",
"aXaXaX8XaX#XXXsXsXsXsXsXsXaX8X8XaX8X8X5XaXdXdXeXwXP.$.R h h ] W...- 7.6.i.h 6 k.C.J / ] h T [.dXaXaX",
"aX9X9XaXaXaXaXaXaXaXaXaX9X9X9X9X9X9XaXaXaXaXaXgX].2.M } }  .i.C.0 = h.5./ +.V Z.S - . Q 6 T zXeXaXaX",
"aX9X9XaXaXaXaXaXaXaXaXaXaXsXsXsXsXsXsXsXsXaXaXgXoXz.=.=.` } 5.p.D 8 ^ R B p 3 l.q < B L B F.wXaXaXaX",
"sX9X9XaXaX0XeXaXaXaX0X8X9XsXsXsXsXsXaXaXaXaXaXaXdXwX:XS.*.N =.,.r.w q 3 o 3 K D V f C / } _.OX$XaXaX",
"9X9X9X8X0X0XaXaXaX5X5X8X8XaX9XaX8XaXaXaXaXaXaX8XeXeXtXrX;X_.z.%.2 w q * % S e.| p o C J 4.:XI.9X9XaX",
"aXaXaXaXaXaX0X0X0X5X5X8XaXaXaXaXaXaXaXaX8XaXaX8XaX5XeXtXeXeXeX[.n.F e q K >.s.s.V L L ) J.T.8X$X9XaX",
"aXaXaX8X8XaX0X0XaX8XaXaXaXaXaXaXaXaX5XXXOX8XaX0XsX8XaXdXaXgXdXgXzX1X!.:.1 M 4.m.#.#.[ { ;X6X8X9X9XaX",
"aXaXaX8X8XaXsXaXsXsXaXaXaXaXaXaX0X8X#X XXX#X9X9X8X8XdXdXgX*XgXgXwXrXrXwX`.z.%.Y ..K g j.iXOXaX8XaXaX",
"0XaX8X8X8XaXsXaXaXaXaXaXaX5XeXtXeXaX5XOX5XgXgXeXeXtXtXeXgXsXsXaXdX4XdX6X5XtXtXG.*.l :.1XuXgXdX0XaXaX",
"0X0X8X8XgXgXgXgXgXdXgXtXeXeXtXtXrXrXrX;X).).(.b.,.{ Y _.eXhX$X9X8XeXaXaXaXaXtXeXwXL.v.eXjXdXXXfXaXaX",
"0X8X8X8XgXdXgXgXuXeXwX].Y.`.G.G.D.2.*.;.,.<.:.| O.y ; F.[.XXkX8XaXaXaXaXaXaXaX8XaXaX8X8XaXdXdXaXaXaX",
"8X8X9XaXaXdXtXwXv.2.9.1.=.0.=.8.4._ ) P u.Z.d.S Z C d B.iXtXtX6X0XaXaXaXaXaXaXdXaXaXkXOX8X.X8X8XaXaX",
"8XaXaX8XaXdXeX{.%.r W U 3.N.N.6.x u j ; h h.T % + C P h.iXeX7X4XaX8XaXaX8XOX8XdXdXOXaX8XfX.X8XaXaXaX",
"tXgXdX8XaXdXwX{.t.F g - G a.Z.b x y.i.B i s.| o i f P d.iXjX4XdXaX8XaX8X.X|..XaXdXaXaXaXaXaXaXaXaXaX",
"uXgXaX9X9XaXeXyXx.T % . O ..F.n | k...] f K e.K 4 X J ;.].eXdXOXaXaXaX8XXX+XXXaX8XaXaXaXOXaX8X8XaXaX",
"uXeXaX9X9X9XtXyXQ.r.6 p : [ N.x T r.| K 4 5 Q i O a / M uXhXaXaXaXaXaXaX8X8XaXdXaXaXaXsXaXaXaXdXaXaX",
"uXgXaX9XqX9XaXiX^.| 5 + +  .A.n g D ^ g : f O.O. .i...c wX*XsX9XaXaXaXaXaXaXaX8XaXaXaXaXaXaXaX8XaXaX",
"gXgXsX9XqX8X5XiX>Xe.L @ a @.V.3.q & & > % Q y.C.V.a.R c ].gXaX8XaXsXaX8XaXaXaXaXaX8XaXaXaXaX8XdXaXaX",
"gXgX9X9XqX9X0XrX>Xe.]  .X.@.i.p.<.2 < = 0 S ^ >.>.-.W N L.eX5X.XOXaXaXaXaXaXaXaXaXaXaXOXXX8XaXdXaXaX",
"gXaX9X@X@X8X0XrX<X1.H >.) U Y ;.W t $.W &.$.t.H.!.~.(.'.eXdX5X+XXX8XaXaXaXaXaXdXaXaXaX+X|.8XaXaXaXaX",
"gXaX#X%X%X$X8XeXrX2.r W %.2.c.G._.).1X1X,X1XwXpXyXyXpXpXOXOX5X.XOXaXaXaXaXaX8XaX8XaXaXXX.XaXaX8XaXaX",
"dXdX9X@X@X9XsXaXgXeXeXpX].L.&XjXwXpXwXgXtXcXaX*XhXgXtXgXdXsXdXaX8XaXaXaXaXaX8XaXaXaXsXaXaXsXaXaXaXaX",
"aXaXaX9X9XsXaXaXdXaXgXeXdXXXgXaXgXgXsXaX8XXXXX#X=X*XdXaXkX9X8X8XaXaXaXaXaXaX8XaXaX8XaXaXaXaX8XaXaXaX",
"8XaXaXdXdXdXaX8XaXaX0XaXdXdXdXaXdX#X$XsXkX0XaXaXaXaXdX5X8X#X8XfXaXaXaXaXaX8X#XaXaX8XaXaXaX8XOX8XaXaX",
"aX8X8XaXaXaXaXaX+X8X8X0X5XaX5XaXdXsX#X9X8X5X8X8X8X8XaXaX8XaXaXOXaXaXaXaXaX#XOXaXaXaXsXaXaXaXOX#XaXaX",
"aXaXaXaXaXaXaXaXaXaXaXaXaXaXaXaXaXaXaX9X8X0X8XaXaXaXaXaXaXaXaXaXaXaXaXaXaXaXaXaXaXaXaXaXaXaXaXaXaXaX",
"aXaXaXaXaXaXaXaXaXaXaXaXaXaXaXaXaXaXaXaXaXaXaXaXaXaXaXaXaXaXaXaXaXaXaXaXaXaXaXaXaXaXaXaXaXaXaXaXaXaX"
};
