/* XPM */
static char *_659e29b29ab4ae997e97c6ad8e1454ehcwX8z0YvVe8J8UD[] = {
/* columns rows colors chars-per-pixel */
"50 50 250 2 ",
"   c #0C0C07",
".  c #110E0B",
"X  c #120E05",
"o  c #12120C",
"O  c #151A0C",
"+  c #1C1C0C",
"@  c #181707",
"#  c #151312",
"$  c #151A13",
"%  c #1B1B13",
"&  c #191719",
"*  c #0E130C",
"=  c #231B0E",
"-  c #281B16",
";  c #1E2313",
":  c #1E2617",
">  c #1F210D",
",  c #26250E",
"<  c #242313",
"1  c #292513",
"2  c #2D2A14",
"3  c #24241B",
"4  c #2A271A",
"5  c #2C2A1A",
"6  c #252B17",
"7  c #312C15",
"8  c #312E1A",
"9  c #332513",
"0  c #2D331B",
"q  c #27381B",
"w  c #343315",
"e  c #3B3515",
"r  c #33331B",
"t  c #3A351B",
"y  c #3D3A1B",
"u  c #393918",
"i  c #312F0E",
"p  c #1A2834",
"a  c #1D313A",
"s  c #1F2028",
"d  c #252726",
"f  c #2B3725",
"g  c #343423",
"h  c #3A3925",
"j  c #2A3635",
"k  c #363A37",
"l  c #2D2C32",
"z  c #1C1F26",
"x  c #501110",
"c  c #423C1C",
"v  c #433B18",
"b  c #4A3115",
"n  c #633214",
"m  c #453E25",
"M  c #5F3F33",
"N  c #66372B",
"B  c #39411C",
"V  c #384425",
"C  c #34413B",
"Z  c #314C2F",
"A  c #4A451C",
"S  c #4D4A1C",
"D  c #4A4518",
"F  c #534C1B",
"G  c #514916",
"H  c #5B541C",
"J  c #59551E",
"K  c #6D551C",
"L  c #71651C",
"P  c #434223",
"I  c #4D4A24",
"U  c #484627",
"Y  c #524C24",
"T  c #524B2A",
"R  c #48522A",
"E  c #5A552B",
"W  c #5A5A2B",
"Q  c #585526",
"!  c #494936",
"~  c #585737",
"^  c #4B503C",
"/  c #615D25",
"(  c #69542E",
")  c #586638",
"_  c #506933",
"`  c #6B6627",
"'  c #756C2D",
"]  c #78722B",
"[  c #666638",
"{  c #776B36",
"}  c #777337",
"|  c #2E3946",
" . c #16315F",
".. c #4B3E42",
"X. c #394646",
"o. c #3C4757",
"O. c #2B454D",
"+. c #3C5C69",
"@. c #3F4A62",
"#. c #474D46",
"$. c #585844",
"%. c #434B59",
"&. c #485252",
"*. c #596046",
"=. c #4E6D48",
"-. c #686947",
";. c #647748",
":. c #797948",
">. c #6A7056",
",. c #435465",
"<. c #4B6668",
"1. c #576C66",
"2. c #486678",
"3. c #536B75",
"4. c #5B7677",
"5. c #4F757C",
"6. c #717678",
"7. c #6F584B",
"8. c #857729",
"9. c #847B37",
"0. c #935726",
"q. c #833F45",
"w. c #8A7B4F",
"e. c #867A6A",
"r. c #A17E4B",
"t. c #63843E",
"y. c #64864B",
"u. c #7C864C",
"i. c #7C8752",
"p. c #729354",
"a. c #73867D",
"s. c #89853B",
"d. c #958F35",
"f. c #B19436",
"g. c #A8A534",
"h. c #868549",
"j. c #938A42",
"k. c #88995C",
"l. c #909158",
"z. c #ACA853",
"x. c #989A65",
"c. c #919273",
"v. c #A19D64",
"b. c #B89E68",
"n. c #97A96D",
"m. c #A8A569",
"M. c #A6A672",
"N. c #B9B777",
"B. c #B2B16E",
"V. c #A89E4F",
"C. c #C3BC7C",
"Z. c #C8BD79",
"A. c #C3BA75",
"S. c #E5B772",
"D. c #CCC27C",
"F. c #E9CF72",
"G. c #EBD174",
"H. c #EDD57A",
"J. c #EED87E",
"K. c #EDD374",
"L. c #0C3E8C",
"P. c #1A4592",
"I. c #3B75AA",
"U. c #435D89",
"Y. c #4A6A87",
"T. c #577688",
"R. c #527495",
"E. c #647A84",
"W. c #68779E",
"Q. c #497CA8",
"!. c #5777AD",
"~. c #627DA9",
"^. c #5F829F",
"/. c #728D91",
"(. c #5885B5",
"). c #5588B1",
"_. c #6788A5",
"`. c #6E91A6",
"'. c #6695BA",
"]. c #7391B1",
"[. c #3488DA",
"{. c #2984DB",
"}. c #2C8BE2",
"|. c #368DE5",
" X c #448DD8",
".X c #5794D1",
"XX c #6697C6",
"oX c #7499CC",
"OX c #639CD4",
"+X c #759ED5",
"@X c #77A6C6",
"#X c #6AA4D9",
"$X c #74A7D7",
"%X c #499AE7",
"&X c #7AABE3",
"*X c #79B3E6",
"=X c #73ABED",
"-X c #50A0E3",
";X c #8B9994",
":X c #ACB286",
">X c #B5BB89",
",X c #B2BA98",
"<X c #8D9AA9",
"1X c #94ADB2",
"2X c #B0A99C",
"3X c #C5BF80",
"4X c #DAB7B9",
"5X c #B9C49E",
"6X c #CCCA8C",
"7X c #C9C686",
"8X c #D4CB85",
"9X c #D5CE89",
"0X c #DCD48C",
"qX c #DBD187",
"wX c #D9D594",
"eX c #D3CE92",
"rX c #EED982",
"tX c #E8D789",
"yX c #F1DC85",
"uX c #F1DE89",
"iX c #FBDB8A",
"pX c #EBDE91",
"aX c #E2DC99",
"sX c #ECCB81",
"dX c #F3E18D",
"fX c #FDE88E",
"gX c #F8E38A",
"hX c #EEE193",
"jX c #F4E493",
"kX c #F9E793",
"lX c #FCEA95",
"zX c #FEED99",
"xX c #F7E896",
"cX c #FFF19A",
"vX c #FFF096",
"bX c #C4C9A4",
"nX c #C5D1A6",
"mX c #E3E0A1",
"MX c #87ADDC",
"NX c #8BB0D0",
"BX c #88B6E8",
"VX c #97B9E5",
"CX c #87BCF1",
"ZX c #B1BFE2",
"AX c #92C3ED",
"SX c #ACC7E4",
"DX c #B9CFEB",
"FX c #B4D7E4",
"GX c white",
"HX c #CBD4DA",
/* pixels */
"jXjXjXjXjXjXjXjXjXjXjXjXjXjXjXjXjXjXjXjXjXjXjXjXjXjXjXjXjXjXjXjXjXjXjXjXjXjXjXjXjXjXjXjXjXjXjXjXjXjX",
"jXjXjXjXjXjXjXjXdXjXjXjXjXjXjXjXjXjXjXjXjXjXjXjXjXjXjXjXjXjXjXjXjXjXjXjXjXjXjXjXjXjXjXjXjXjXjXjXjXjX",
"jXjXjXjXjXjXjXdXH.jXjXjXjXjXjXjXjXjXjXjXjXjXjXjXjXjXjXjXjXjXjXjXjXjXjXjXjXjXjXjXjXjXuXjXjXjXjXjXjXjX",
"jXjXjXjXjXjXjXjXjXjXjXjXjXjXjXjXjXjXjXjXjXjXjXjXjXjXjXjXpXhXjXkXjXjXjXjXjXjXjXjXjXjXH.dXjXjXdXjXjXjX",
"jXjXjXjXjXjXjXjXjXjXjXjXjXjXjXjXjXjXjXjXjXjXjXjXjXjXhXvXM.7XcXwXjXrXG.rXjXjXjXjXjXjXjXjXjXjXH.jXjXjX",
"jXjXjXjXuXJ.yXjXjXjXjXjXjXjXjXjXjXjXdXH.jXjXjXjXjXlX:Xc.>X>XM.a.lXG.F.G.jXjXjXjXjXjXjXjXjXjXjXjXjXjX",
"jXjXjXjXG.G.G.dXjXjXjXjXjXjXjXjXjXjXjXuXjXjXjXjXjXlX6X/.1.<.>XpXjXyXH.yXjXjXjXjXjXjXjXjXjXjXjXjXjXjX",
"jXjXjXjXG.G.G.dXjXjXjXjXjXjXjXjXjXjXjXjXjXjXjXjXjXkXwXeX9X6X:X;XlXjXjXjXjXjXjXjXjXjXjXjXjXjXjXjXjXjX",
"jXjXjXjXdXJ.uXjXjXjXjXjXjXjXjXjXjXjXjXjXkXfXgXgXkXjXdXlX>X6XlXaXjXjXjXjXjXjXjXjXjXjXjXjXjXjXjXjXjXjX",
"jXjXjXjXjXjXjXjXjXlXlXlXzXdXF.J.jXjXjXkXwX1XNX1XaXlXJ.gX6X6XlXjXjXjXjXjXjXjXjXlXlXlXlXiXiXjXjXjXjXjX",
"jXjXjXjXjXjXjXlXpX6X7X0XC.tXJ.rXjXjXjXfXnX=X&X&X5XfXjXlX6XeXlXjXjXjXjXJ.uXjXjXN.M.M.M.w.b.lXjXjXjXjX",
"jXjXjXjXjXjXlX9XN.B.N.$.* C tXlXjXjXjXjXmXBXoXVX5XfXhXkX6X0XkXjXjXjXjXrXdXlXc.m.B.z.-.1 f M.lXjXjXjX",
"jXjXjXjXjXlXN.B.z.V.[ o d & -.zXjXjXjXlXaX$XoXBXbXfXxXlXeXeXlXlXlXzXlXlXcXM.v.f.d.} 7 y B =.0XlXjXjX",
"jXjXjXjXlX8Xm.B.} ! # & o . * N.hXhXtXtX>X$XBXCX,XqX9X0X:X:XtX7X7X3XC.7Xx.l.V.8.' y w u 0 Z N.zXjXjX",
"jXjXjXjXxXx.V.' E % # o % 5 P ) :.>.*.>.T.(.!.(.a.i.i.k.x.l.l.h.h.} } } T z.j.' v 7 r O @ V k.xXjXjX",
"jXjXjXgXA.h.] ` 1 o   3 g U [ W Y 2 R l.>.-.-.-.[ ' } } } w.h.9.9.' ` v [ g.` G 1 7 g k   V y.0XlXjX",
"jXjXlXtXh.9.] A . . # 3 g U c ! 4 5 P -.T A Y Q E ~ P u u h t u U W Y 2 h.s.F e , 5 6 X.& 6 t.7XlXjX",
"jXjXlXC.:.` Q + . o & % > w U m 4 r r 2 h t y u P ~ $.t y m y y y u 7 2 j./ S e 2 g k X.l O _ B.lXjX",
"jXjXxXx.] H e o . O 6 0 r P T T E W W Q Q ) [ [ ) >.$.g >.~ :.[ E Q I m s.S A w 7 h #.#.|   V k.lXjX",
"jXjXpX:.J F 1 . d d 6 u u r r 0 r u y h P P ~ R P ! 4 8 U T ~ m e 7 2 T ' v P 2 r V =.o.l # , u.jXjX",
"jXlX3XP U c = . d k k g 7 7 7 t m t m t 8 h ^ g 5 h + ! m m I v v ! k T W A m 2 V q C o.4 # ; ;.hXjX",
"jXzXm.S F e = . $ 1 M 7.#.k d < 1 < , 1 1 , , h 8 h   k k k ! &.%.k & T J I e 2 V k X.%.d # ; ;.pXjX",
"jXzXx.Y D e + # 3 b 0.f.N l k u.:.*.! ^ $.^ ^ ^ ^ #.&...k k h.2. .6 w W S U 2 8 h C %.C X.d + ) 0XlX",
"jXzXl.S e e o # 3 - n 0.n = L d.8.f.3 j W.ZXHX6.# ;X2Xx 9 6 g.h.P.l t W D U 1 r V X.o.q o.s @ ) 8XlX",
"jXzXl.D e y . # 4 6 < @ = 7 ` 8.8.L @ d P.].GX6.@ M q.4X$.< 8.d. .p w W D c < g 0 C o.q %.z O ;.8XlX",
"jXzXv.S y y . % < , 1 2 i i , , u 1 = d P.L.U.%.1 x x c.! 1 5 3 $ $ 5 W Y u < r f X.X.k X.d O y.8XlX",
"jXzXm.S c w o & j p p a a a j j ; 6 r g k k d 6 5 9 9 @ + < % + ; % 5 / Y e < 8 k C Z o.d l $ y.9XlX",
"jXzXm.D c 1 . a .X.X#X'.XXOXOXQ.3 7 U I I Y E Y U 2 a +.+.O.O.X.X.j f / I u < 0 j C Z @.: d $ ;.8XlX",
"jXzXm.S c 5 . | [.CX1X-.e.SX$X(.2 &.].^.R.R._.`.<.@ 2.$XXX'.].`.R.Y.o.W Y w < r f X.X.| f 3 O y.9XlX",
"jXjXl.J y 5 . p {.*X1Xa.;XSXOX).w E.AXBX$XMXAX&X_.2 `.BXMXSXDXBX#XCX4.F E 2 < w 2.Q.Y.T.,.| * p.0XkX",
"jXhX:./ e 5 X p }.|. X-X#X.X}.'.v 2.*X$X+XMXBX$X`.e _.VXSXDXSXMXAXFX4.S Y , 4 u T.OX'.*X'.T.X y.8XlX",
"jXpXh./ e 8 X p [.{.|.%X[.{.[.@Xe Y.*X`.oX$X@X&X`.c 3.<XNXVXVXMXAXBX3.F A 2 5 u 3.OXXXXX+XY.O p.7XlX",
"lXlX:.G e 8   a |.[.%X X[.}.%X@Xe Y.#Xw.<X~.e.CX`.c 6.<XNXMXVXVX$X=X3.G e r 1 w ,.+X$X!.$XU.; p.9XlX",
"tXN.~ F I U , j Q.).Q.I.I.I.I.Y., T.&X6._.(.;X@X3.u 6.]._.].NXNX'.XX<.i w 5 1 , +.&X&X(.#XR.% k.0XlX",
"M.~ 9.j.j.s.s.9.} { } / U , & : @ R.&X'.).OXCX>.' { ' { { } } [ -.-.[ [ I 1 h h 1.E.E.T.5.<.V ;.3XlX",
"N.` ' ` K H H Q Q Q S v t 1 1 g < T.#X*X$XOX*X*.K H r.0.K G D S F F Q F e 1 5 r y B U R _ u.n.n.n.6X",
"N.[ H F G D v v e e e e e 2 < 3 X Y.OX=X#X.X*X#.H F { K n v u w w e e y 7 1 5 5 0 r B R _ t.p.n.k.7X",
"B.r v v y c c y e w 7 1 , X O 5 r n.nXbXbXbXbX^ U U P m y V h B B B q 6 ; @ O ; 0 V _ ) y.p.p.k.p.7X",
"tXZ.Z.Z.Z.Z.D.D.D.D.D.A.m.v.N.qXrXlXlXfXfXlXfXtXtXpXtXqXqXqX8XD.D.D.N.B.x.v.v.m.B.N.Z.Z.Z.Z.D.8X8XjX",
"jXzXzXzXzXzXzXlXlXlXlXzXcXcXzXlXjXjXjXjXjXjXjXyXgXlXlXlXlXlXlXlXlXlXlXzXcXcXcXcXzXzXlXlXlXlXlXlXlXjX",
"jXjXjXjXjXjXjXjXjXjXjXjXjXjXjXjXjXjXjXjXjXjXjXjXjXjXjXjXjXjXjXjXjXjXjXjXjXjXjXjXjXjXjXjXjXjXjXjXjXjX",
"jXjXjXjXjXjXjXjXjXjXjXjXjXjXjXjXjXjXjXjXjXjXjXjXjXjXjXjXjXjXjXuXdXjXjXjXjXjXjXjXjXjXjXjXyXjXjXjXjXjX",
"jXjXjXuXdXjXjXjXjXjXjXjXjXuXjXjXjXjXjXjXjXjXjXjXjXjXjXjXjXjXdXF.H.jXjXjXjXjXjXjXjXjXjXJ.F.uXjXjXjXjX",
"jXjXjXG.H.jXjXjXjXjXjXjXsXS.sXjXjXjXjXjXjXjXjXjXjXjXjXjXjXjXjXrXyXjXjXjXjXjXjXjXjXjXjXuXH.dXjXjXjXjX",
"jXjXjXdXdXjXjXjXjXjXjXjXsXS.yXjXjXjXjXjXjXjXjXjXjXjXjXjXjXjXjXjXjXjXjXjXjXjXjXjXjXjXjXjXjXjXjXjXjXjX",
"jXjXjXjXjXjXjXjXjXjXjXjXjXjXjXjXjXjXjXjXjXjXH.uXjXjXjXjXjXjXjXjXjXjXjXjXjXjXjXjXjXjXjXjXjXjXjXjXjXjX",
"jXjXjXjXjXjXjXjXjXjXjXjXjXjXjXjXjXjXjXjXjXjXdXjXjXjXjXjXjXjXjXjXjXjXjXjXjXdXyXjXjXjXjXjXjXjXyXdXjXjX",
"jXjXjXjXjXjXjXjXH.dXjXjXjXjXjXjXjXjXjXjXjXjXjXjXjXjXjXjXjXjXjXjXjXjXjXjXjXdXJ.jXjXjXjXjXjXjXrXuXjXjX",
"jXjXjXjXjXjXjXjXdXjXjXjXjXjXjXjXjXjXjXjXjXjXjXjXjXjXjXjXjXjXjXjXjXjXjXjXjXjXjXjXjXjXjXjXjXjXjXjXjXjX",
"jXjXjXjXjXjXjXjXjXjXjXjXjXjXjXjXjXjXjXjXjXjXjXjXjXjXjXjXjXjXjXjXjXjXjXjXjXjXjXjXjXjXjXjXjXjXjXjXjXjX"
};
