/* XPM */
static char *f991c020f0f2455fa66a993d99895b52FOiuwi8A5SMS7VEe[] = {
/* columns rows colors chars-per-pixel */
"50 50 237 2 ",
"   c #090902",
".  c #120D01",
"X  c #130F0D",
"o  c #0C1506",
"O  c #151905",
"+  c #0A1A18",
"@  c #171816",
"#  c #1B1B11",
"$  c #251C07",
"%  c #371E0D",
"&  c #251A14",
"*  c #1C230A",
"=  c #052119",
"-  c #1A2416",
";  c #232405",
":  c #29270A",
">  c #342B0C",
",  c #2E320E",
"<  c #35340D",
"1  c #272918",
"2  c #352918",
"3  c #2D3419",
"4  c #343113",
"5  c #393816",
"6  c #34331C",
"7  c #3A3C1B",
"8  c #131B21",
"9  c #182323",
"0  c #1C3521",
"q  c #17373B",
"w  c #212822",
"e  c #2B2A23",
"r  c #352D27",
"t  c #273729",
"y  c #333424",
"u  c #3B3623",
"i  c #333B22",
"p  c #3B3B23",
"a  c #37382B",
"s  c #3B3B2B",
"d  c #212E33",
"f  c #293B32",
"g  c #383A34",
"h  c #411D11",
"j  c #4C2C13",
"k  c #423C1A",
"l  c #4A3A1C",
"z  c #473B27",
"x  c #433C35",
"c  c #3F401E",
"v  c #31472A",
"b  c #394228",
"n  c #374437",
"m  c #3B4C3B",
"M  c #47461C",
"N  c #57541B",
"B  c #434422",
"V  c #484727",
"C  c #4B4B2D",
"Z  c #544B25",
"A  c #4B522C",
"S  c #595629",
"D  c #484735",
"F  c #4A4C34",
"G  c #554934",
"H  c #4B5437",
"J  c #565836",
"K  c #645A2D",
"L  c #6E4837",
"P  c #635A38",
"I  c #5D632A",
"U  c #5C6439",
"Y  c #61672C",
"T  c #666639",
"R  c #746C3B",
"E  c #76733C",
"W  c #283C49",
"Q  c #354A46",
"!  c #33554E",
"~  c #2B4E54",
"^  c #344D5A",
"/  c #3E575A",
"(  c #395A6A",
")  c #3B6279",
"_  c #464443",
"`  c #584945",
"'  c #47584A",
"]  c #585846",
"[  c #465C59",
"{  c #595C56",
"}  c #625D47",
"|  c #73574F",
" . c #596649",
".. c #536950",
"X. c #536958",
"o. c #676847",
"O. c #746A48",
"+. c #6D7344",
"@. c #7A764A",
"#. c #686757",
"$. c #796D51",
"%. c #677858",
"&. c #777756",
"*. c #475E66",
"=. c #4F6E6F",
"-. c #566965",
";. c #776C69",
":. c #647064",
">. c #757967",
",. c #667978",
"<. c #83734E",
"1. c #877A57",
"2. c #917E60",
"3. c #827B78",
"4. c #A57867",
"5. c #7B825C",
"6. c #7C8667",
"7. c #7A9267",
"8. c #6A8479",
"9. c #788879",
"0. c #7C937B",
"q. c #8E864B",
"w. c #898658",
"e. c #928A59",
"r. c #94935D",
"t. c #A49458",
"y. c #95A05F",
"u. c #868766",
"i. c #978765",
"p. c #8C9665",
"a. c #98956B",
"s. c #858A76",
"d. c #978E72",
"f. c #8B9575",
"g. c #9C9372",
"h. c #959A74",
"j. c #A28E6B",
"k. c #A3966A",
"l. c #A69972",
"z. c #B59E77",
"x. c #9CA469",
"c. c #9AAA79",
"v. c #9FB07C",
"b. c #ACA869",
"n. c #A6A777",
"m. c #B5A47A",
"M. c #BBB379",
"N. c #657F89",
"B. c #3E8E9F",
"V. c #4F8B96",
"C. c #5E8596",
"Z. c #58949B",
"A. c #658588",
"S. c #748A85",
"D. c #7A9486",
"F. c #6C9190",
"G. c #6C9396",
"H. c #789897",
"J. c #5F8FAA",
"K. c #4897A6",
"L. c #5B99A6",
"P. c #648EA0",
"I. c #6593A8",
"U. c #7699A5",
"Y. c #649EB6",
"T. c #52A5B0",
"R. c #7CA2A6",
"E. c #78A4B5",
"W. c #71AEBC",
"Q. c #68B9C7",
"!. c #71B7C2",
"~. c #869B87",
"^. c #9F918F",
"/. c #839C95",
"(. c #999591",
"). c #B78E83",
"_. c #8FAB8C",
"`. c #83A299",
"'. c #ABA786",
"]. c #B5A984",
"[. c #BDAB83",
"{. c #ADB884",
"}. c #B2B18B",
"|. c #BBB68A",
" X c #A6BB95",
".X c #B6B594",
"XX c #839FA5",
"oX c #86A5A8",
"OX c #8CADAE",
"+X c #98A9A8",
"@X c #97B6AD",
"#X c #88B3BB",
"$X c #95B8BB",
"%X c #A4B9A8",
"&X c #B7B6AF",
"*X c #A3B9B6",
"=X c #C4AD83",
"-X c #CAAF85",
";X c #C3B58A",
":X c #CCB58A",
">X c #C4B888",
",X c #D4BB8E",
"<X c #C5BE95",
"1X c #D6BC91",
"2X c #DABE92",
"3X c #97C394",
"4X c #AAC597",
"5X c #B9C79B",
"6X c #A9CEAC",
"7X c #B9D5AD",
"8X c #A8C4BC",
"9X c #C7C28B",
"0X c #C8C697",
"qX c #DDC395",
"wX c #DAC598",
"eX c #DBCA9D",
"rX c #E3C495",
"tX c #E5C798",
"yX c #E8C799",
"uX c #E6C99A",
"iX c #EBCC9D",
"pX c #C8D1B0",
"aX c #EECFA0",
"sX c #F0CFA1",
"dX c #EFD0A1",
"fX c #F0D1A2",
"gX c #F1D2A3",
"hX c #F2D2A4",
"jX c #8DB5C3",
"kX c #A6BEC1",
"lX c #9BC5C5",
"zX c #89C4D4",
"xX c #A7C9C6",
"cX c #B2C8CA",
"vX c #AFD2D1",
"bX c #8BCFE3",
"nX c #C5CCC5",
/* pixels */
"fXdXaXiXiXuXtXiXdXfXfXdXdXfXfXdXfXdXfXfXfXfXfXfXdXfXfXfXfXdXiXuXuXiXdXdXaXfXfXfXfXhXfXaXiXiXiXfXdXiX",
"fXfXfXhXfXiXuXiXfXfXfXfXfXfXfXfXdXaXiXiXiXdXfXfXfXfXfXfXfXfXiXuXtXuXiXiXaXfXfXfXhXfXaXaXdXfXhXfXfXdX",
"fXdXfXfXaXiXiXfXdXfXfXfXfXfXfXdXdXiXuXuXiXaXdXdXfXfXdXfXhXfXaXiXuXtXtXtXiXfXfXiXiXiXiXiXaXfXhXfXfXfX",
"fXaXaXiXuXiXfXfXdXfXfXfXfXfXfXdXiXuXuXtXtXiXiXiXaXfXfXdXfXfXfXfXiXuXtXuXiXdXfXuXrXtXuXiXiXiXfXaXfXfX",
"fXfXaXiXiXiXiXiXaXaXfXfXfXfXdXiXuXrXiXiXtXrXrXuXiXfXfXfXaXiXfXfXfXdXaXdXfXhXdXuX2XrXiXdXiXaXdXdXfXfX",
"fXfXdXfXdXdXiXiXiXuXuXiXdXfXfXaXiXiXaXiXiXuXuXiXdXhXfXiXiXiXiXfXdXhXfXdXdXhXhXiXuXiXdXfXdXaXfXfXfXfX",
"fXfXfXfXhXfXdXiXaXuXtXiXfXfXdXdXiXiXiXaXdXdXfXfXdXfXfXdXiXiXiXiXiXdXfXdXaXdXfXfXdXfXfXdXfXfXfXhXhXfX",
"fXfXdXdXdXdXdXhXaXiXiXfXfXdXdXdXaXiXiXiXaXdXdXdXaXfXfXhXdXaXiXuXiXdXfXfXdXaXdXfXdXdXfXdXfXdXaXfXfXfX",
"dXfXfXfXfXdXdXfXaXiXfXhXhXdXaXiXiXdXiXuXuXiXaXiXiXaXdXdXfXdXdXaXfXfXfXdXiXiXdXfXhXdXdXfXfXiXiXiXiXiX",
"fXfXfXfXdXdXfXfXdXiXiXdXdXfXdXdXiXaXaXiXiXaXiXiXuXuXaXfXfXfXfXfXfXfXdXaXiXdXfXfXaXuXqXtXiXuXtXtXtXuX",
"fXfXfXfXdXdXtX1X,X:X:X1XtXaXfXfXiXdXfXdXiXiXuXtXyXiXdXfXfXfXfXfXfXdXaXiXiXaXuXwX<X}.g.g.=XrXtXrXrXrX",
"fXfXfXfXaXeX7X6X6X6.&.2.m.2XdXfXfXhXhXiXuXrXrXuXiXfXfXfXfXfXdXfXfXdXiXuXtXwXpX6X4Xf.' ] i.2XiXuXuXtX",
"fXfXfXaXeX7X6X`.D.Q 1 s $.m.tXfXfXaXfXsXuXrXrXuXaXfXdXdXiXaXaXaXaXiXuXqX:XpX7X X~.X.0 b 1.,XhXhXiXuX",
"fXfXiXwX5X6X3X%.v o   o C i.:XqXqXqXqXtXuXrXqXqXqXqXqXqXqXqXqXqXqX,X,X=X}.pX Xf. .3 - y $.=XaXfXfXdX",
"hXdXtX9X4X3X7.v o   $ 5 } u.'.m.m.].}.[.=X[.[.].;X>X>X>X>X9X9X9XM.M.m.e..X0Xn.O.u 1 1 1 } z.tXaXdXfX",
"dXuX9X|.4Xc.U     . > S &.u.s.&.$.u.f.d.g.d.a.u.h.c.x.h.x.n.n.n.x.r.<.E 0Xm.<.l $ 6 u 1 G j.rXfXdXfX",
"uXqX|.{.v.p.,   o . 4 K T T J A A A H  .6.6.5.o.o.U T S M M N S Y I 5 q.M.t.K > $ 6 s i V 1.1XfXdXhX",
"rX:X{.v.p.J     @ # 6 Z S S J T T T T T +.+.o.U +.S S K K K K S S M k b.t.<.S > : 7 V b p $.-XaXdXdX",
"qX|.v.h.&.: . @ @ a F P R @.w.w.w.e.q.q.r.l.p.@.+.I +.w.w.w.@.O.R S S M.q.R M : 4 C H b 3 P z.uXfXdX",
"tXn.p.5.o.. & g 9 D J S Z N S I Y N N S K Y J J U c V P O.O.P V k 7 S k.E R k : B J H i - D j.rXdXdX",
"1Xl.5.o.V . . w _ G G z l V M M S Z S < 5 7 ; : 5 4 G G V G G C A 7 S r.q.T 4 B B b b y # z 2.2XdXfX",
":Xl.6.o.z . . X _ <.| L z k k 5 < 5 7 4 1 : 1 u u & z G G J ] ] u 5 S w.R S : B C F D x e s 1.,XdXdX",
"-Xl.5.J 5   . & ` ).4.L j @.a.i.&.P } #.>.>.#.} #.;.` z ` 3.3.g 1 5 T <.K k ; b C H D s r u 1.:XfXdX",
"=Xa.&.B 4   . & 2 | L j Z e.a.g.d.6 D s.&XpX{ s ^.3.` r x (.&X{ e u O.@.S 4 ; p V H D s y u <.:XfXfX",
"=Xa.o.7 4   X @ & h % % l O.@.u.&.O e { (.nX:.e { ;.^.;.r ;.3._ # 6 $.$.Z > ; 6 p F D s a u <.:XfXfX",
":Xa. .i 3   X + @ & % 2 > c C F a o - n { 9._ w 1 ` ;.{ & g g - o 3 o.O.Z : O 3 i b b s y y $.:XaXdX",
",Xd. .i 1 o d ^ W Q _ n g n v - t a f m n f n t 1 e r e # X + - o 3 o.o.V : O 3 i b a a 1 y $.:XaXfX",
"1Xd.] y # 8 / U.I.H.A.F.H.H.-.t a H ' ' ' ' ' m w f { { ' ' / ! f 3 U o.B ; O i n m m f - e O.-XfXfX",
"1Xg.] y # 9 *.E.zXW.G.#XlXjXA.Q X.D.D.D.S.D.D.X.f -.~.~.D.H.H.A.=...U o.B ; O m ' X.[ Q f t } -XiXdX",
"1Xg.} 2 & 8 ^ I.bXW.L.!.zXW.C./ 9.*X@X@X@X8X@X8.Q D.@X*X8XxXlX#XOX~. .o.b * O ' 8.8.8.,.=.! ' .XuXiX",
"1Xg.#.2 % + ^ L.Q.Q.Q.Q.W.Y.C.( A.$X$XOX$XlXoXF./ S.*XcXvXvXlXlXxX_. .J p * O X./.`.oXOXH.=./ OXuXiX",
",Xg.#.2 2 + ^ V.B.K.T.T.K.Y.J.) N.jX#XE.#XjXjXoX*.N.*XcXcXxXlXlXxX_. .J i - - -./.oXoXOXXX=.( #XiXaX",
",Xa.o.4 1 + ~ L.K.T.T.K.K.Y.I.) C.jXE.E.U.R.vXoX*.,.+X*X*XkXxX$X@X~. .H u 1 @ ' S.oXoXU.XX*.*.kXiXfX",
"=Xw.J B 7 1 Q C.Z.Z.V.Z.L.E.P.( A.#XU.G.F.U.kXH.-.,.+X%X%X8XxX@X`.~.H p 2 & # n S.+XoX`.oX,.#.pXuXdX",
";Xn.p.p.w.5.0.H.H.F.=.=.^ ~ q q A.$XoXF.H.@XD.9.>.>.s.s.s.~.~.0.9.6.o.C 4 1 e ' 9./.D.8.:...] '.qXdX",
";Xn.x.x.y.p.h.9.0.s.%.m 9 + = q =.R.R.H.`.8X8.>.&.u.u.1.1.w.w.w.u.5.5.O.k 2 u D ] ....%.7._. X4XeXfX",
"m.5.E Y I A J J D D z y 1 - y ] 9./.F.OX`.%X9.&.O.u.w.O.K Z M V A A J V : O ; : 3 t v m  .7.c.4X0XiX",
"z.O.A B M c 5 6 1 1 3 1 O 6 G O.s.~.D.~.~.%Xs.&.o.o.J C M 5 < , , 5 7 4 ; O O * 7 F  .6.f._. X5X0XtX",
",Xm.j.i.1.1.1.1.1.w.i.i.i.l.z.z.m.|.}.}.}..X].m.k.i.w.<.O.o.P } P J J J F C V C J  .%.&.u.h.n.|.,XtX",
"aXuXqX1X,X1X,X:X:X1X2X2X,X,X2XqX2XqXqXeXeXeXqXqXqX2X1X:X=X[.[.;X;X;X|.|.|.}.}.}..X0X<X|.;X;X:X1XrXiX",
"fXsXiXiXiXfXfXfXdXfXhXaXuXrXtXiXaXiXfXfXaXaXfXfXfXaXfXhXfXfXfXfXfXfXfXaXiXiXiXtXtXuXaXdXfXdXiXiXiXaX",
"fXiXuXuXiXfXfXsXaXfXhXfXiXuXiXfXfXfXdXfXfXfXfXdXfXfXfXiXdXfXfXfXfXfXfXfXaXiXiXtXrXtXiXuXuXiXdXfXfXdX",
"sXiXuXtXiXfXfXfXaXfXfXfXfXiXfXfXhXfXdXdXfXfXfXiXiXdXdXdXdXaXiXiXaXaXfXfXdXaXaXiXuXuXuXrXtXiXfXhXfXdX",
"fXiXuXiXfXfXfXfXfXfXfXfXfXfXfXfXfXfXdXfXdXdXfXiXuXiXuXiXaXiXiXuXuXtXiXdXdXdXfXhXdXiXiXuXuXuXiXfXdXfX",
"fXfXfXfXfXfXfXfXfXfXfXfXfXfXfXfXfXfXfXfXdXfXfXfXaXuXtXiXiXiXiXuXrX2XrXiXiXiXdXfXdXaXaXaXiXuXiXaXdXfX",
"fXhXfXiXiXdXhXfXfXfXfXfXfXaXaXiXdXfXfXfXdXdXfXfXfXiXuXiXiXiXiXtXrXrXtXtXuXuXiXaXfXfXiXaXfXdXiXiXaXdX",
"fXfXiXuXiXaXfXfXfXfXfXfXfXsXiXyXiXiXiXfXfXfXfXfXfXaXdXdXfXdXiXtXuXiXiXrXqXtXiXfXfXdXiXiXdXfXiXuXiXiX",
"fXiXtXyXiXiXaXfXfXfXfXfXfXsXiXtXrXuXiXdXhXfXfXfXfXfXhXdXfXfXiXiXiXdXiXuXrXtXiXfXfXfXaXdXdXdXiXuXtXiX",
"fXiXuXtXuXiXfXfXfXfXfXfXfXiXuXtXrXuXtXiXfXfXfXfXdXaXdXdXfXfXfXfXdXdXaXdXdXdXfXdXiXaXfXhXfXfXiXuXtXiX",
"fXaXiXuXtXuXsXfXfXfXfXfXfXfXiXiXuXtXrXtXiXfXfXfXfXfXdXfXfXdXfXfXfXaXfXfXdXfXdXiXtXuXiXdXfXfXaXiXiXdX"
};
