/* XPM */
static char *_d77d1872f5e4ce89f6e0f9c0399777bxJI7eJbn9d5e3zXY[] = {
/* columns rows colors chars-per-pixel */
"50 50 121 2 ",
"   c #F4E390",
".  c #F4E493",
"X  c #F4E593",
"o  c #F5E593",
"O  c #F5E594",
"+  c #F4E492",
"@  c #F3E18D",
"#  c #F5E695",
"$  c #EDD579",
"%  c #F2E08C",
"&  c #F4E594",
"*  c #F3E28F",
"=  c #ECD376",
"-  c #F3E390",
";  c #F5E696",
":  c #F5E493",
">  c #F0DB84",
",  c #ECD276",
"<  c #F3E28E",
"1  c #EDD578",
"2  c #EFD981",
"3  c #F1DE89",
"4  c #EED77C",
"5  c #EBD275",
"6  c #E9CF72",
"7  c #F3E290",
"8  c #ECD377",
"9  c #EAD072",
"0  c #EAD073",
"q  c #F3E18E",
"w  c #F1DD86",
"e  c #F0DC85",
"r  c #F4E491",
"t  c #EBD276",
"y  c #F2DF8B",
"u  c #EED77D",
"i  c #F4E391",
"p  c #F5E895",
"a  c #F5E694",
"s  c #F5E595",
"d  c #F4E290",
"f  c #EED87E",
"g  c #EED87D",
"h  c #F4E392",
"j  c #EED084",
"k  c #F2DC8D",
"l  c #EED87F",
"z  c #EFD97F",
"x  c #EDCD82",
"c  c #E3B570",
"v  c #E8BF77",
"b  c #F0DA82",
"n  c #F5E794",
"m  c #EFD386",
"M  c #E5B872",
"N  c #EBC77D",
"B  c #F3DE8E",
"V  c #F2DF8A",
"C  c #EFD980",
"Z  c #F0DB83",
"A  c #F2E08B",
"S  c #F4E28F",
"D  c #F1DD87",
"F  c #ECD478",
"G  c #F2DE89",
"H  c #F3E08C",
"J  c #E9D072",
"K  c #EED67C",
"L  c #F5E795",
"P  c #EDD479",
"I  c #EBD173",
"U  c #F1DC86",
"Y  c #F0DB82",
"T  c #E8CD6E",
"R  c #F1DB8C",
"E  c #EDCD81",
"W  c #ECCA7E",
"Q  c #E4B56E",
"!  c #F1D98A",
"~  c #F3E090",
"^  c #F0D587",
"/  c #F3E191",
"(  c #F4E291",
")  c #EAC37B",
"_  c #E5B671",
"`  c #E9C179",
"'  c #F3E08F",
"]  c #E6B872",
"[  c #E5BC76",
"{  c #F1DE88",
"}  c #EDCE82",
"|  c #E7BC75",
" . c #EAD174",
".. c #F1DE87",
"X. c #F2DF89",
"o. c #EFDA82",
"O. c #E9CD6D",
"+. c #EDD67B",
"@. c #F1DF89",
"#. c #F0DA83",
"$. c #EBD174",
"%. c #F1DC85",
"&. c #EAD071",
"*. c #EFDA81",
"=. c #EDD57A",
"-. c #E9CE70",
";. c #EDD67A",
":. c #F0DC84",
">. c #F2E18D",
",. c #F0D689",
"<. c #E9CF70",
"1. c #EDD67C",
"2. c #E9CD6E",
"3. c #ECD477",
"4. c #F6E895",
"5. c #EDCC81",
"6. c #E3B26E",
"7. c #EFD488",
"8. c #E7BD76",
"9. c #F0D789",
"0. c white",
/* pixels */
"  . . . . X X o O X o o o X X o o . o o o o o o X . X . o + . o . . o . . . . . . . . . . . . . o o ",
". O X X X . o + @ . o o o X X . X X o o o o X X o X X . X X . . o X o X . o . X o o # o X . . . o o ",
". . X . X + O @ $ + X + . o . . . o X . . . o o . X o . X . . . . . . . . . . o o + % + X . & . . . ",
"X . . X . + + o . . o . . o . o o o o . . . o o X . X o . + . X o O o O X . X . O * =   O + - . . . ",
"X o X . O ; # o X . . . X . o . o . O # . o o X X . . o X . . : O > , > O . . X . . + . O < 1 + o . ",
". . . & @ 2 3 O + . . . X . . + + O % 4 X . . . . . . X X . . . + 5 6 5 + X . . . . . . . + 7 . X . ",
". . o + 8 9 0 q O . X . . X . X . O * w X . o X o . + . X . . . O > 8 e O . . o X X . . . . & . . . ",
". . X r t 0 9 q O . . . . X X X . . & # . . o . . . O O o . . . o O O O X o . X . X . + + X . . o X ",
"X . . O y u w O X . . . . O i . X . . . . X o . X O <   O . . . . . . + X o . . . . X p a . X o . . ",
". . . . O # s . X . X . O d t f O . X . . X X . . ; g > ; + o X . . . ; O . o . . o h j k a . . . . ",
"+ . . + + + + X . . . . &   8 l O . . . . X . . X . + . X X . X . . X z @ O . . + p x c v h o . X X ",
". o . . . . . X X X . . . O + . X . . . . . . . . . . . X X . X . . o b @ O . o + n m M N X . . . . ",
". X X . . . . X . . & . . . . . . . . X . . . O O X . . . . . X . . . ; & . . . o . a B i X + X X X ",
". X X . + . . . o +   . . . . . . . . . . + O V = * O . o X . . . . . + . . . X . X + a o . X o X . ",
"X X . O # . . . O * = i . . . . o . . . X . O % C   O . X . o . . . . . o . . o o . . + . . X o . + ",
". . O V Z O . X o + * . . . . . . o . . . . . O # X . X o . . O O . . . X o . . X . X X . O o . . + ",
". X O V Z O + o X . O o . + . o . + + . . . X o + . o X X . X 7 A X . X . X o o X . . X . S + X + + ",
"X . + O # . . . X . . o + . + . . s # & . . X o o X . . X + # D F . . . o . + + X X . + O $ G # + + ",
"+ . o o X X . . . . . o o X . . . > u * O X X . o X X X X . o . + X . o . + o # X X X . X   + o . o ",
"X o X X X . + . . X X . X o . O H 9 J K # : o . . + + . . . . o o . . o o o * D + X o X . O . . X o ",
"o . . . . a L o . o . . X . . X i P I U s . o + # Y f ; + . . o o X . . + # u T G # + X X . . X . o ",
"o . X . a R E i o o X o . X . . O + * & . . . . X 7 * & . . X o . . o o + & 3 K   o X X . . . X . . ",
"o . . + L W Q ! L + X X . . . . X o O . . . X . . O & . X . + o o . . X X . O # o + X . . . . . X X ",
"o o . . o ~ ^ . X . . . o . . X . o + X X . X o . . . o o o L o . . + . . X X + o o . . + . . X X . ",
". X . X . a L X . . . . o X X o X . X o X + X . + . . . a / ! ( a . . o X . . o o X . . X & . X o . ",
"X X . X . . + o X . + X X o . . . . + . . . . . . . . X + ) _ ` ( X + . . . X X o . + X + q + X . + ",
"X X . X . . . . . + s O + o . . X . . . . . + . . . . X ' ] [ _ k a + . + . . X + + o . u 9 f O + + ",
"+ . o . + . . . + s b { # + . . . . . + + . + . . . . + o } | x . . . X + + . . + + O * 9  .5 + X o ",
". . . s O . . . + O ..A O + + . . . . # & + . . + . . . X a . a X + . + X O . . . X . . b = e O + . ",
"X . O X.@ & . . . + # O + . . . . X + o.V & + X . X . . . . . . . . + X 7 V . . . X X X O o O X . . ",
". . # z { # + . X . + + . . + + + O A O.+.a + . X X . . + . . . . . + # @.$ O . . + . X . + + . . + ",
"X . + s & X X . X X + X + X . . + X + #.A O . . + . . . O X . . . . X . + . . . X + . . X + . X . X ",
"X . . + . X o o . X . + X X . X . X o # O + . o + . X . y - X X + . . X X . X . X . . X X + + . . . ",
". X X . . o . + o X o X . + . X . . o + . + . + X . X + $ % O . . X X o + + X . . X . . . # & + X . ",
"+ . X . . X X O r o X X X + + X o . X X o . + X . . . . X X . X X . + . O # o . . X . + & > % & . o ",
"X . X . . . # { $.> a + . X X . + . . . X . . o . . . . . X . . . . + O @ %.r o X X X + & z V # + o ",
"+ + . . X + # U &.*.# + . . . X # o o o X X o + + . . . . . . X . + + O =.-.C # + o . X + # O + . + ",
". X . X . . X X * X X X o . X   ;.  X + . o . # O + . + . . o . . + + O C $.w a + X o . X + . . + + ",
"X X . X . . . + O X . X o + X r :.r X . . + O %.V a + . + . . . + . . o X i X X X . . . . . + . X + ",
". X X . X X . + + + . X . + + o # X . X + + # b D # + . + . . + + . + . + o . o . X . + + + . X . . ",
". . . . + X . . X X o o + + o X + . X X . o . # a + . . + . . O O . . . + . X X . . . X # . . X . . ",
"+ . . & O . . . X . X . X L X X . . . X X + . + X . . + . . & { >.O . . . . . o X + O q w + . . + + ",
"+ . & @.{ & + . . . . o ( ,.h X + . . + . . + + . . . X + X * <.1.a + X . . o . . + O +.2.A O + + . ",
"+ o X 8 3.X . . . . + 4.5.6.x L + . . . + . O o . + X o . + + Z V O . . . . . . . + O { f i X . . X ",
". o X -   X . . . . + n 7.8.9.a + . . X . . @ i o . X . . . X # O . . . . + + o . + . O # X + . + + ",
". . . O O . . X O X . + a + a + . . X . + O 1 @.# + . . X + + + + . . X . O # . . . . + + X # X X . ",
". . X . + . . . 7 + . . + + + . . . . + + . i + X . . . . + + X . . . + O % z O o . + . . o C @ O + ",
". X . . . . . O $ V s + . . . + . . + . + + . . . . . + + + + . + . . + & @ Z X . + . . + X Z < O . ",
"+ + X X o . . .   + X . . . X + . . . . . + + . . . + + + + + + . + + . + O # . X + . . + . # X . . ",
"+ + + X o . + . X o . . + . . + . + + . . + + . X + + X + + . . + + + + + + + . X . . . o . + + . + "
};
