/* XPM */
static char *ecc1a7e2df2d4b53d6d5be250e892d61JoekWIUbnNpZcnsn[] = {
/* columns rows colors chars-per-pixel */
"50 50 75 1 ",
"  c #EFD1A2",
". c #F0D2A3",
"X c #E7C699",
"o c #E8C79A",
"O c #EDCEA0",
"+ c #ECCD9F",
"@ c #ECCE9F",
"# c #EED0A1",
"$ c #EFD0A2",
"% c #EDCE9F",
"& c #EBCB9D",
"* c #DFBC91",
"= c #E0BD92",
"- c #EBCC9E",
"; c #E2BF93",
": c #DCB78D",
"> c #DEBB90",
", c #EACA9C",
"< c #EFD2A2",
"1 c #E1BE93",
"2 c #DCB88E",
"3 c #DEBA90",
"4 c #E6C598",
"5 c #E5C497",
"6 c #DFBB90",
"7 c #E8C89A",
"8 c #EFD2A3",
"9 c #EDCFA0",
"0 c #E4C296",
"q c #DFBB91",
"w c #E9C89B",
"e c #E9C99C",
"r c #E3C195",
"t c #ECCC9E",
"y c #E1BF93",
"u c #E9C99B",
"i c #EECFA1",
"p c #E9CA9C",
"a c #F0D3A3",
"s c #EECFA0",
"d c #E7C69A",
"f c #E7C79A",
"g c #DDB98E",
"h c #DAB48B",
"j c #E0BD91",
"k c #EACB9D",
"l c #DEBA8F",
"z c #E6C498",
"x c #E6C599",
"c c #E1BD92",
"v c #E5C397",
"b c #E4C396",
"n c #E2C094",
"m c #ECCD9E",
"M c #DEB98F",
"N c #DBB58C",
"B c #E1BE92",
"V c #E0BC91",
"C c #E8C89B",
"Z c #E2BF94",
"A c #EACA9D",
"S c #EBCB9E",
"D c #E4C397",
"F c #EFD0A1",
"G c #E6C699",
"H c #E5C498",
"J c #DDB98F",
"K c #DDB88E",
"L c #DBB68D",
"P c #DBB68C",
"I c #DAB58B",
"U c #F0D3A4",
"Y c #E3C095",
"T c #DBB78D",
"R c white",
/* pixels */
"                                                  ",
"   ...                                 .. Xo .    ",
"   O+@#                               $O%&*=-#    ",
" .O;:>,.                    <<       .+1234567<   ",
" 890q=0w#        <<        #oe .<    .Or61t&yu<   ",
"   ##%==9.       i#       .%*1%i#      #i#  #$    ",
"   <. pu#      .#r0 a.     #e0*30s< .< <.8  8     ",
"      8.       +d=1fo,#     .e6gr9.9u-           <",
"         $#    4goo:hj%.     #OOs .kl0           #",
"        $4rO8  k4%@z0fi       ..8  %x,          Xc",
"        #r=+.      <<<                          v2",
"         O+#                                    O-",
"         8.        .a+bu       ..       ,rnX .  <.",
"                  im+XMz       %@       X:NB&#    ",
"                 .ul:VCO     8iZy9.     OAA53o8   ",
"       +4S..     <k;VD#.     . 5bi<      .a&ne    ",
"      .ugv9O#      ##F       #Oi$           #     ",
"  .    OCZllG      <8       .w=e.           <     ",
" -oO   . 4>6X      8       #er=p8     ..      <   ",
" HJ,.    #99#     $#$     .%*1O      ####    ##   ",
" &X9.     ..     .kyu<     #oe <    .oV*4$  #vr98 ",
" . kS           #-b67<      <<     i,rJKv# <#r1O. ",
"  +*Z#8        .9==-#             .&lr+@9    9O   ",
"Z;Zr7#          #Xf .             <@He..<    8.   ",
":L3k.                                             ",
"&&-#                                              ",
"...  ..-5A          .O5r4O<    ..            <+5, ",
"    #% uJ4          iogh6-.    OO            .,lz ",
"   <o*ui,+        <#rVfeA#   8inZ9.      ..<  9,+ ",
"   <uy,..       .  #vr#a.    <#b0s<    .t4Hu#  .< ",
"    $#$        #iF  ##         ##      #zPhyi.    ",
"   ...         oBA...<    <.   <<    .%n;XX,#     ",
"  #pk          f=AOw+     tu9.<      .@yv .8      ",
" .%*19         #9 ogX.    5Je #        9i         ",
"  ifnZ&a.       ..-4-     kD;=;k<      .<         ",
"   .73vAAO         <      .91Llu.                 ",
"    #&BN:X                  @-mi                  ",
"    . Xnr,  .izZ0-<         ...     .<   i4x#     ",
"            ie6IJe.                #+9  .9=1i.    ",
"            5>XAk9                .&*5<.<$--      ",
"  iXCF      fr@U.      <.     .   .+rnvvu ..      ",
" .%*;#8      #         i9$   #9#    #vPIr#<       ",
"  #pk        <         51+. .w=ea.  <moo&    <.   ",
"   ..         <        z;+.#erV0XXt  <..< <. ,u#. ",
"   ##         ##       #i .%*y-1hPX<      # #;qt  ",
" 89r5 .     .%Y4 a.     .  #oeFeH4- .<  <s0Ds,0B7 ",
" .OyBu9     .+1ywuS$        <  <..<s,m  .9ZniU&VX ",
"   95J7.      95TI;i.             .klb    OO  #%i ",
"   .-H-       .-D0o#              <%4e    ..   .  ",
"                                                  "
};
