/* XPM */
static char *_e88688cdd4b484daa9a1d04519d6199Q7kgK9z08bAZhbC7[] = {
/* columns rows colors chars-per-pixel */
"50 50 236 2 ",
"   c #080909",
".  c #17150C",
"X  c #241E00",
"o  c #302F29",
"O  c #28282B",
"+  c #101226",
"@  c #5B3935",
"#  c #1C782D",
"$  c #35512F",
"%  c #78571C",
"&  c #785C00",
"*  c #776319",
"=  c #7B5727",
"-  c #705039",
";  c #6F7E33",
":  c #717F34",
">  c #506738",
",  c #333551",
"<  c #423E5D",
"1  c #5C5C4D",
"2  c #4B4D57",
"3  c #4F5153",
"4  c #565757",
"5  c #4B534B",
"6  c #6E584B",
"7  c #6E6C4E",
"8  c #646254",
"9  c #6A7057",
"0  c #5C5D62",
"q  c #4C4E74",
"w  c #5F6064",
"e  c #656166",
"r  c #6E6B75",
"t  c #883C1C",
"y  c #AE2E1A",
"u  c #8D392A",
"i  c #963A27",
"p  c #863D32",
"a  c #AC3725",
"s  c #B43424",
"d  c #D1331E",
"f  c #D83C27",
"g  c #CB3A25",
"h  c #E63C23",
"j  c #D52711",
"k  c #875B17",
"l  c #8C5810",
"z  c #967106",
"x  c #956D19",
"c  c #8F6613",
"v  c #A26C1D",
"b  c #91512D",
"n  c #A6442C",
"m  c #AB4838",
"M  c #A95035",
"N  c #9A6A29",
"B  c #9B712A",
"V  c #8A6B31",
"C  c #A6752D",
"Z  c #B3792D",
"A  c #AA7C32",
"S  c #A47B36",
"D  c #B46F30",
"F  c #D6432A",
"G  c #C84832",
"H  c #E7452C",
"J  c #F1462D",
"K  c #88565C",
"L  c #9D7847",
"P  c #8B6F4F",
"I  c #B9774D",
"U  c #805378",
"Y  c #85676C",
"T  c #B57F79",
"R  c #AF5140",
"E  c #C8735E",
"W  c #C57364",
"Q  c #369A3D",
"!  c #348E3B",
"~  c #2EA23D",
"^  c #4C963C",
"/  c #54983C",
"(  c #4A8B38",
")  c #6A8836",
"_  c #3AA541",
"`  c #30B648",
"'  c #4D8A45",
"]  c #729157",
"[  c #43A744",
"{  c #5AAD54",
"}  c #76886B",
"|  c #70B05B",
" . c #8A8835",
".. c #988537",
"X. c #84923A",
"o. c #9C892E",
"O. c #A38827",
"+. c #B7812F",
"@. c #AA8437",
"#. c #B48434",
"$. c #BA8634",
"%. c #BC8935",
"&. c #BD893A",
"*. c #B69535",
"=. c #B9A03D",
"-. c #C28C35",
";. c #C38E38",
":. c #C68A34",
">. c #C49239",
",. c #CD943A",
"<. c #CD9636",
"1. c #D49A3C",
"2. c #DA9D3D",
"3. c #D69738",
"4. c #E19B3C",
"5. c #DCA23F",
"6. c #D4A33E",
"7. c #E3A33F",
"8. c #8C9056",
"9. c #B18B45",
"0. c #B9974A",
"q. c #A88557",
"w. c #AC9558",
"e. c #B59856",
"r. c #A9964A",
"t. c #80A05B",
"y. c #B8A55A",
"u. c #8C8567",
"i. c #9D9366",
"p. c #88887F",
"a. c #999370",
"s. c #A99966",
"d. c #B09A67",
"f. c #9AA669",
"g. c #85B161",
"h. c #B9A769",
"j. c #ABA678",
"k. c #B5AD7B",
"l. c #B4AA77",
"z. c #B8B67A",
"x. c #A5AC72",
"c. c #C6994E",
"v. c #C1A75B",
"b. c #DBA240",
"n. c #C3A968",
"m. c #C9B36D",
"M. c #C2B67A",
"N. c #CABD7C",
"B. c #C6B876",
"V. c #E5B873",
"C. c #E3B56E",
"Z. c #D5836C",
"A. c #D6C57B",
"S. c #D2C273",
"D. c #E8CE6E",
"F. c #EACB78",
"G. c #EBD274",
"H. c #EDD57A",
"J. c #EED87F",
"K. c #F1D97E",
"L. c #5D5F93",
"P. c #59638E",
"I. c #696B9B",
"U. c #717192",
"Y. c #696DA6",
"T. c #7275B5",
"R. c #7375AC",
"E. c #6B5C8B",
"W. c #777CC7",
"Q. c #7078C8",
"!. c #758EAB",
"~. c #7D81D3",
"^. c #8F8E8A",
"/. c #BA8D86",
"(. c #A9BA84",
"). c #BCBD83",
"_. c #B4AE94",
"`. c #9BAD9E",
"'. c #C5BC85",
"]. c #CEB6B0",
"[. c #B9C389",
"{. c #AFCD91",
"}. c #BBE8A5",
"|. c #CCC483",
" X c #CCCA81",
".X c #CBC78A",
"XX c #D3C681",
"oX c #DACC85",
"OX c #D7CD87",
"+X c #DDD28B",
"@X c #DCD086",
"#X c #D1D796",
"$X c #EBCF85",
"%X c #E2D285",
"&X c #EFD285",
"*X c #EED982",
"=X c #E4D58B",
"-X c #EBDC8E",
";X c #E8D98C",
":X c #F0DC84",
">X c #F2DE8B",
",X c #F1D385",
"<X c #ECDD91",
"1X c #E5DA90",
"2X c #F2D792",
"3X c #F3E18D",
"4X c #FCE88C",
"5X c #EEE294",
"6X c #F4E493",
"7X c #F9E694",
"8X c #F5E996",
"9X c #FBEA96",
"0X c #F3E698",
"qX c #F5EA99",
"wX c #FCEC9A",
"eX c #FEF29C",
"rX c #FFF499",
"tX c #FFF08F",
"yX c #C3F1AA",
"uX c #FFF9A1",
"iX c #8184CE",
"pX c #8386D1",
"aX c #868AD5",
"sX c #878BDC",
"dX c #8E91DF",
"fX c #90B4CE",
"gX c #8EB1D2",
"hX c #8A8EE0",
"jX c #8A92E6",
"kX c #90C0DF",
"lX c #BBC4C4",
"zX c #99C9EE",
"xX c #B4E2FE",
"cX c #A7D6F9",
"vX c #D3E8EA",
"bX c #CFCAC5",
/* pixels */
"3X6X6X6X6X6X6X6X6X6X6X6X6X6X6X6X6X6X6X6X6X6X6X6X6X6X6X6X6X6X6X6X6X6X6X6X6X6X6X6X6X6X6X6X6X6X6X6X6X6X",
"6X6X6X6X6X6X6X6X3X6X6X6X6X6X6X6X6X6X6X6X6X6X6X6X6X6X6X6X6X6X6X6X6X6X6X6X6X6X6X6X6X6X6X6X6X6X6X6X6X6X",
"6X6X6X6X6X6X6X3XH.6X6X6X6X6X6X6X6X6X6X6X6X6X6X6X6X6X6X6X6X6X6X6X6X6X6X6X6X6X6X6X6X6X3X6X6X6X6X6X6X6X",
"6X6X6X6X6X6X6X6X6X6X6X6X6X6X6X6X6X6X6X6X6X6X6X6X6X6X6X6X6X6X6X6X6X0X6X6X6X6X6X6X6X3XG.6X6X6X6X6X6X6X",
"6X6X6X6X6X6X6X6X6X6X6X6X6X6X6X6X6X6X6X6X6X6X6X6X6X6X6X7X5X6X9XwXwX:XG.:X6X6X6X6X6X6X6X6X6X3XH.6X6X6X",
"6X6X6X6X3X:X>X6X6X6X6X6X6X6X6X6X6X6X3XJ.6X6X6X6X6X6X6X5Xw.L OXn.m.H.G.G.6X6X6X6X6X6X6X6X6X6X6X6X6X6X",
"6X6X6X6XG.G.G.3X6X6X6X6X6X6X6X6X6X6X3X:X6X6X6X6X6X6X8Xe.k l = l v v.K.*X6X6X6X6X6X6X6X6X6X6X6X6X6X6X",
"6X6X6X6XG.G.G.3X6X6X6X6X6X6X6X6X6X6X6X6X6X6X6X6XwXwXeXv.N c l % V B.9X6X6X6X6X6X6X6X6X6X6X6X6X6X6X6X",
"6X6X6X6X>XH.:X6X6X6X6X6X6X6X6X6X6X6X6X6X6X6X6X0XB.n.XXh.N C k k l V 0X6X6X6X6X6X6X6X6X8X6X6X6X6X6X6X",
"6X6X6X6X6X6X6X6X6X6X6X6X6X7XG.J.6X6X6X6X6X6X0Xw.-.<.;.% % A = w.q.z.9X6X6X6X6X6X6X6X6X&X>X6X6X6X6X6X",
"6X6X6X6X6X6X6X6X6X6X6X9X6XM.G.K.6X6X6X6X6XwXh.-.5.1.5.;.x c c w.v.6X6X*X3X6X6X9X6X6X$XV.V.6X6X6X6X6X",
"6X6X6X6X6X6X6X6X6X6X7X X2X{ g.7X6X6X6X6X7X5X9.2.1.1.1.b.x z x B V XXwX*X3X6X8X%XO.S.>XV.F.6X6X6X6X6X",
"6X6X6X6X6X6X6X6X6X6XwXf.' # | 7X6X6X6XwXqXd.;.2.1.1.1.2.#.%.#.-.v.0X6X8X6X3XwXy.z A.wX>X6X6X6X6X6X6X",
"6X6X6X6X6X6X6X6X6X6X6X;X[ ' =X9X6X9X0XB.0.:.,.3.1.1.1.1.1.2.,.+.c.5X6X;X6X9X6X=XA.6X6X6X6X6X6X6X6X6X",
"6X6X6X6X6X6X6X6X6X3XG.7X=X6X9X6X9X1Xw.A  .X.( ; 3.2.1.1.2.2.,.A B.9XwXx.z. X] <XwX6X6X6X6X6X6X6X6X6X",
"6X6X6X3X:X6X6X6X6X9X3X6X9X9X6X6X<X9.$.^ : > ( Q X.2.>.A A $.>.#.m.6X9Xz.# # ! oX7X6X6X6X6X6X6X6X6X6X",
"6X6X6X>X*X6X6X6X6X=XwX9XoXoX9X8Xe.3.>.^ / Q  ...X.3.#.#.V B ,.2.S 1X9X<Xg.t.OX7X6X6X6X6X6X6X6X6X6X6X",
"6X6X6X6X6X6X6X6XwX7 i.uXs.o 6XOX&.;.3. .( / ^ ;.4.1.1.2.2.$.$.2.@.+XwX6X9XwX9X6X6X6X6X6X6XH.>X6X6X6X",
"6X6X6X6X6X6X6X6XeXP 7 uXj.9 5Xn.#.[ ) ; ) :.[ X.2.1.1.1.1.2.2.1.,.@.oX9X6X6X6X6X6X6X6X6X6X3X6X6X6X6X",
"6X6X6X6X6X6X6X6X7X[.{.N.[.yX.Xv.%.[ _ ^ )  .` ..2.1.1.1.1.1.1.2.;.+.9.1X7X6X6X3X6X6X6X6X6X6X6X6X6X6X",
"6X6X6X6X6X6X6X6X7Xk.yXx.{.yX).0.3.%.^ _ ^ _ / ,.2.1.1.1.1.1.1.1.,.A :.h.wX6X:XS.>XwX6X6X6X6X6X6X6X6X",
"6X6X6X6X6X>X&X6X9Xz.}.(.(.} k.0.3.2.%...;.#.,.1.1.1.1.1.1.1.1.1.1.A <.e.8X7Xf.' $ ] 6X6X6X6X6X6X6X6X",
"6X6X6X6X6XF.C.,X9X+X5 5 [.$ k.c.3.1.2.7.%.#.5.1.1.2.1.1.1.1.1.1.2.#.C h.wX3X<X X~ ~  X9X6X6X6X6X6X6X",
"6X6X6X6X6X>X&X6X6X<X} ] ).}..X0.3.1.1.>.i b 6.2.>.S 5.2.2.1.1.1.3.%.A s.wX3XwXz.Q ' XX9X6X6X6X6X6X6X",
"6X6X6X6X6X6X6X6X6X7X.X}.k.{.#Xe.1.1.2.%.b g Z &.n a D $.%.;.1.1.3.1.2.$.n.wX6X=X|.;X6X6X6X6X6X6X6X6X",
"6X6X6X6X6X6X6X6X6X9X%X{.[.(.#Xd.C b.,.5.N f H i f J f a C 2.1.2.1.1.1.3.0.5X6X9X9X6X6X6X6X3X6X6X6X6X",
"6X6X6X6X6X6X6X6X6X6X9X.X(.M b p k 2.1.6.D s F J H F Z.M -.2.1.$.#.,.,.<.e.8X6X6X6X6X6X6XJ.G.J.6X6X6X",
"6X6X6X6X6X6X6X6X6X6X4Xm.b H d G _.q.<.Z s C n J F E E N 5.2.>.@.#.b N S XX9X6X6X6X6X6X3XG.G.G.6X6X6X",
"6X6X6X6X6X6X6X6X6X6X4Xd.y h G ].vX/.b y k 3.Z t i p @ = Z #.Z D n d P +X9X6X6X6X6X6X6X6X*XG.:X6X6X6X",
"6X6X6X3X3X6X6X6X6X6XeXI d._.lXvX/.y a ^.fXp.} 6 u u n n i g F h G R q.rX>X3X6X6X6X6X6X6X6X6X6X6X6X6X",
"6X6X6XJ.:X6X6X6X6X6XeXI W bX].W K u e zXxXzX!.< q.,XA.5XB.g J G W m h.eX*XG.6X6X6X6X6X6X6X6X6X6X6X6X",
"6X6X6X6X6X6X6X6X6X6X6X6XP r Y Y cX^.gXgXr 2 .   2 +XrX6XwXd.i i n L 8X6X6XwX6X6X6X6X6X6X6X6X6X6X6X6X",
"6X6X6X6X6X6X6X6X6X6X6X9X_.kXkXzXfXgXU.O   X 2 W.sXR.=X6X>XwX1XA.@XwX6X9X%X0.%X6X6X6X6X6X6X6X6X6X6X6X",
"6X6X6X6X6X6X6X6X6X6X6X9X'.zXxXfXY., . X o q W.dXaXW._.7XB.3X7XwX9X6X6XwXXX& r.wX6X6X6X6X6X6X6X6X6X6X",
"6X6X6X6X6X6X6X6X6X6X6XwXN.fXgXP.  . q R.Y.W.T.pXaXW.j.rX.X<X6X6X6X6X6X6XwXA.A.9X6X6X6X6X6X:X3X6X6X6X",
"6X6X6X6X6X6X6X>XG.:X6XwXk.P., L.2 iXhXhXW.I.T.~.hXY.XXwX=XOX9X6X6X6X6X6X3X4X9X6X6X6X6X6X6XJ.:X6X6X6X",
"6X6X6X6X6X6X6X:XD.*X6XwX^.+ O pXjXaXiXpXaXT.R.dXY.a.wX6X6X'.6X6X9X6X<X6XH.D.*X6X6X6X6X6X6X6X6X6X6X6X",
"6X6X6X6X6X6X6X6X3X6X6XeXh., hXaXiXpXpXaXaXsXT.Y.Q.j.wX6X9X|.-X-X<X@.O.0XJ.D.:X6X6X6X6X6X6X6X6X6X6X6X",
"6X6X6X6X6X6X6X6X6X6X6X9X;XU.~.aXpXpXaXW.Q.R.r E.K oX6X6X6X@XXXM.+XO.=.0X9XwX6X6X6X6X6X6X6X6X6X6X6X6X",
"6X6X6X6X6X6X6X6X6X6X6X6X7XN.^.Y.jXQ.q p.k.%XqXI d 5XeXwXwX9Xz.-XrX6XeX+Xf.f.! t.9X6X6X6X6X6X6X6X6X6X",
"6X6X6X6X6X6X6X6X6X6X6X6XwXwXtXu.U U.^.tXrXeXeX>XL u.u.a.a.a.8 a.s.l.M.=X X] ] M.9X6X6X6X6X6X6X6X6X6X",
"6X6X6X6X6X6X6X6X6X6X6X<Xy.S.uXn.j c.5XoXXXN.M.M.z.i.8 0 w e 3 2 2 2 2 3 l.uXwX9X6X6X6X6X>X6X6X6X6X6X",
"6X6X6X3X3X6X6X6X6X6X<X..* r.wX%X- 1 8 1 1 8 1 3 3 3 4 4 0 3 9 i.s.k.'.'.+X6X6X6X6X6X6XJ.D.>X6X6X6X6X",
"6X6X6XG.G.6X6X6X6X6X6X-X$XV.$X8X8X-X-X-X-X6X6X;X+XA.M.l.l.j.|.4XD.G.A.*.v.qX6X6X6X6X6X:XH.3X6X6X6X6X",
"6X6X6X3X3X6X6X6X6X6X6X9X,XV.,X6X6X6X6X6X6X6X6X6X9XwXwXwXwXwXwX<XO.O.N.0.m.8X6X6X6X6X6X6X6X6X6X6X6X6X",
"6X6X6X6X6X6X6X6X6X6X6X6X6X6X6X6X6X6X6X6X6X6XH.>X6X6X6X6X6X6X6X6X5X5X9XwXwX6X6X6X6X6X6X6X6X6X6X6X6X6X",
"6X6X6X6X6X6X6X6X6X6X6X6X6X6X6X6X6X6X6X6X6X6X3X6X6X6X6X6X6X6X6X6X6X6X6X6X6X3X:X6X6X6X6X6X6X6X:X3X6X6X",
"6X6X6X6X6X6X6X6XH.>X6X6X6X6X6X6X6X6X6X6X6X6X6X6X6X6X6X6X6X6X6X6X6X6X6X6X6X3XJ.6X6X6X6X6X6X6X*X3X6X6X",
"6X6X6X6X6X6X6X6X3X6X6X6X6X6X6X6X6X6X6X6X6X6X6X6X6X6X6X6X6X6X6X6X6X6X6X6X6X6X6X6X6X6X6X6X6X6X6X6X6X6X",
"6X6X6X6X6X6X6X6X6X6X6X6X6X6X6X6X6X6X6X6X6X6X6X6X6X6X6X6X6X6X6X6X6X6X6X6X6X6X6X6X6X6X6X6X6X6X6X6X6X6X"
};
