/* XPM */
static char *_02b2dd8834c444fd5505385a053999agYVGRsIawowR1am3[] = {
/* columns rows colors chars-per-pixel */
"50 50 203 2 ",
"   c #0E1525",
".  c #292B2A",
"X  c #243240",
"o  c #353844",
"O  c #463E47",
"+  c #5D3245",
"@  c #3C4B4E",
"#  c #424645",
"$  c #434E5A",
"%  c #5A5557",
"&  c #58645C",
"*  c #6A6755",
"=  c #7E665F",
"-  c #665E71",
";  c #57656E",
":  c #7C6D66",
">  c #6E6F74",
",  c #7B7577",
"<  c #8D3122",
"1  c #953A3F",
"2  c #AF3628",
"3  c #B8362D",
"4  c #B92A34",
"5  c #A63939",
"6  c #B93536",
"7  c #D9201C",
"8  c #D51A23",
"9  c #C8282A",
"0  c #D72525",
"q  c #C7342C",
"w  c #C82D3A",
"e  c #D32934",
"r  c #CB3C34",
"t  c #D53838",
"y  c #E12325",
"u  c #B84438",
"i  c #AE503E",
"p  c #99364A",
"a  c #A7384B",
"s  c #BE3A46",
"d  c #8B4341",
"f  c #994E43",
"g  c #955657",
"h  c #A74846",
"j  c #B84845",
"k  c #A7574A",
"l  c #B8564F",
"z  c #A35953",
"x  c #BC575B",
"c  c #88644D",
"v  c #9C624B",
"b  c #956456",
"n  c #8F775D",
"m  c #99735D",
"M  c #A3685A",
"N  c #B7755C",
"B  c #B35960",
"V  c #99676F",
"C  c #827762",
"Z  c #887874",
"A  c #A77A66",
"S  c #B7716D",
"D  c #C64A45",
"F  c #CE5553",
"G  c #E0544A",
"H  c #D7645E",
"J  c #C56D69",
"K  c #DC6A6B",
"L  c #D77377",
"P  c #E8706E",
"I  c #7F8A6C",
"U  c #8E836C",
"Y  c #9B856B",
"T  c #9B8873",
"R  c #96997E",
"E  c #A2856B",
"W  c #A48C6D",
"Q  c #AB886A",
"!  c #B38C6C",
"~  c #BB8B6C",
"^  c #AD906F",
"/  c #A68A76",
"(  c #B78C73",
")  c #AB9577",
"_  c #BC9675",
"`  c #B59A77",
"'  c #B49B7B",
"]  c #BAA17D",
"[  c #CF8873",
"{  c #C69979",
"}  c #C3A47E",
"|  c #726D8B",
" . c #75788E",
".. c #787897",
"X. c #8A7481",
"o. c #8D7B84",
"O. c #B07B81",
"+. c #8572A5",
"@. c #C17D87",
"#. c #6F849A",
"$. c #84848B",
"%. c #838B8E",
"&. c #988A8A",
"*. c #9A9A83",
"=. c #898D9D",
"-. c #959A98",
";. c #A68A87",
":. c #B88883",
">. c #AC9A83",
",. c #BC9E84",
"<. c #B89396",
"1. c #97A395",
"2. c #ACA68A",
"3. c #B9A587",
"4. c #AAAA91",
"5. c #B4AB94",
"6. c #B4A996",
"7. c #AAB596",
"8. c #B7B59A",
"9. c #8389A8",
"0. c #918BA8",
"q. c #8C92A6",
"w. c #979AA3",
"e. c #8B89BB",
"r. c #8C97B5",
"t. c #9397B9",
"y. c #A99AA8",
"u. c #B999A4",
"i. c #8EADB3",
"p. c #97A5B9",
"a. c #A2A6AB",
"s. c #B8B9A3",
"d. c #A6A6BA",
"f. c #A8B1B1",
"g. c #BAB3BA",
"h. c #C9968D",
"j. c #DB8D92",
"k. c #E28481",
"l. c #EC9B93",
"z. c #F4979A",
"x. c #C3A884",
"c. c #C5AB84",
"v. c #C9AC85",
"b. c #C2AC8B",
"n. c #CBB086",
"m. c #CDB28A",
"M. c #D1B58D",
"N. c #D5B98F",
"B. c #DCBD8E",
"V. c #C2AF93",
"C. c #D9A194",
"Z. c #C9B893",
"A. c #D5BA91",
"S. c #DBBD92",
"D. c #C191A4",
"F. c #C4B8A9",
"G. c #C5B1B3",
"H. c #F1B3AD",
"J. c #B6C3A4",
"K. c #BDC2A9",
"L. c #BCC9AB",
"P. c #BBCCB0",
"I. c #DEC093",
"U. c #E3C495",
"Y. c #E5C699",
"T. c #E8C799",
"R. c #E7C899",
"E. c #EBCC9D",
"W. c #F0CE9F",
"Q. c #C4C9B1",
"!. c #CBCCBB",
"~. c #C2D0B4",
"^. c #EECFA0",
"/. c #F0CFA1",
"(. c #EED0A1",
"). c #EFD0A1",
"_. c #EFD2A2",
"`. c #F0D1A2",
"'. c #F2D3A3",
"]. c #F1D3A4",
"[. c #F2D3A5",
"{. c #F3D4A5",
"}. c #919CC2",
"|. c #9CA6CD",
" X c #9CBAC7",
".X c #9EA9D3",
"XX c #A8A9C5",
"oX c #B0AEC3",
"OX c #A8B4CC",
"+X c #B8BAC7",
"@X c #A1ADD6",
"#X c #A8ADD3",
"$X c #A5B2D1",
"%X c #A8B3D8",
"&X c #B6C6C7",
"*X c #ADC3D1",
"=X c #BED2DA",
"-X c #BADAE7",
";X c #BEE2F1",
":X c #D3D5C2",
">X c #CACBD1",
",X c #CDD4DA",
"<X c #C1DBE3",
/* pixels */
"`.].`.`.`.).`.).).`.`.`.`.`.`.).`.^.^.`.`.).^.).).`.`.`.`.`.).].`.`.`.`.`.`.).`.).`.).^.`.{.).^.`.`.",
").`.`.].].].`.).).`.`.`.`.`.`.).`.)./.`.).`.`.`.].`.`.).`.).).`.).`.`.`.`.`.].`.`.`.E.R.E.`.`.).`.`.",
").`.`.^.E.E.`.`.).`.).`.`.).).`.`.`.).`.).`.`.`.{.`.).`.`.`.`.).).`.`.`.`.].`.E.E.E.R.U.Y.E.`.`.`.`.",
").).E.Y.I.U.E.{.).`.`.`.`.`.`.^.).`.`.`.^.`.`.`.`.`.`.).`.`.`.`.`.`.`.^.`.`.^.R.U.U.U.U.U.Y.E.].).`.",
"`.).R.U.B.B.Y.E.).`.`.`.`.`.).^.`.].`.`.`.`.`.`.).`.`.`.E.E.).].].`.`.).`.].^.R.I.B.Y.R.Y.Y.E.`.).`.",
").^.^.E.R.Y.U.U.`.`.).).).`.`.^.).`.`.`.`.`.`.`.).`.`.E.R.Y.R.E.).`.`.`.`.{.].E.R.R.E.^.E.R.^.`.`.`.",
").).`.].].^.R.U.).`.`.`.`.`.`.).E.E.R.E.).).`.`.`.].`.^.R.U.U.Y.R.E.`.`.).`.].].).`.`.`.`.).`.].`.`.",
"`.).`.`.`.).^.^.).`.`.`.`.`.`.).R.U.U.R.E.E.E.`.`.`.`.`.E.R.U.B.U.R.`.`.E.E.).`.).`.`.).`.`.`.`.`.`.",
"`.).`.).).).`.`.).`.].`.).`.).E.U.Y.U.B.I.Y.E.).`.`.).`.`.E.R.Y.R.E.`.^.Y.U.E.`.`.^.).).`.`.).).].`.",
"`.).`.`.).`.`.`.E.E.E.E.).].).E.U.E.E.I.S.U.R.S.M.R.E.n.W A.).`.E.).`.^.R.Y.E.`.`.`.).`.`.`.`.`.E.R.",
").`.`.).).`.`.).).U.U.E.`.`.).E.E.^.).E.E.E.I.) Y m.m.>.U N.).].).E.).`.^.E.^.).`.`.`.{.`.).`.`.E.U.",
"`.`.`.`.`.`.`.`.`.R.R.`.].).^.).`.`.).).].E.n.*.R 3.5.G.2.I.).`.`.`.`.`.`.).`.`.).`.).`.`.^.`.`.^.R.",
"`.`.`.).`.`.`.`.`.E.).{.`.E.).`.].`.^.`.].U.3.s.s.8.!.!.V.E.`.).`.].`.`.`.`.`.`.^.R.Y.E.^.).`.`.`.).",
"`.`.`.`.`.`.`.`.`.).`.`.).`.].`.^.).).`.^.A.5.!.K.Q.:Xs.A.).`.).E.`.`.`.`.`.`.`.E.U.B.I.R.E.`.`.`.`.",
"`.`.`.).`.`.`.).`.`.`.).^.`.].^.`.`.E.Y.U.n.U 1.7.*.4.b.R.`.^.E.R.E.`.`.`.`.`.).^.Y.U.I.U.R.E.).`.).",
"`.`.`.`.`.`.`.`.E.E.).E.A.M.S.R.`.].E.B.B.v.C R 7.I T N.^.`.E.R.U.E.`.^.`.].`.).).).^.R.U.Y.E.`.`.`.",
"].`.`.).`.`.).E.U.Y.A.` A M M _ U.`.E.R.U.m.4.L.J.J.8.U.{.`.^.E.R.E.).).^.`.`.).).`.{.].R.R.E.`.`.`.",
").].`.`.`.).^.E.U.v.E h.z.K s k v.^.`.`.E.A.4.L.L.J.Z.R.`.E.R.R.^.`.].`.).).`.`.).`.).).`.).).`.`.`.",
").`.^.^.`.`.).E.E.^ :.H.z.G w h } ^.`.].`.I.4.P.~.8.Z.).E.R.Y.R.^.`.`.].].].`.).^.`.).).`.`.`.`.`.`.",
"^.R.Y.E.`.).).].).( C.l.F 9 u ~ S.E.^.).`.Y.2.s.Q.8.A.^.R.U.Y.R.^.`.^.).`.`.`.].).`.].).`.].`.`.`.`.",
"E.U.U.E.{.`.).].`.( k.K e 9 l } _ Q M.R.E.E.b.5.F.5.A.).R.Y.E.`.`.`.).`.^.E.R.R.E.E.].`.).^.R.E.`.`.",
"^.E.E.E.`.`.).).].( F t y 0 F [ k d E S.R.E.A.5.F.3.A.^.E.E.^.`.`.`.`.`.^.R.U.B.U.E.`.`.).E.Y.R.^.`.",
"`.].).Y.R.^.].`.`.} k 9 y 0 G P x z Y S.U.I.M.) ;./ ` A.E.).`.`.`.`.`.E.R.Y.U.U.U.E.).].).E.R.R.E.`.",
"E.E.Y.U.Y.^.`.`.`.S.! j q 0 r D J A x.R.U.x.W b f h k Q N.^.`.`.^.`.`.E.R.Y.R.E.^.E.^.`.`.`.E.E.`.`.",
"U.B.B.R.E.).`.`.`.^.A._ N i 2 l { v.R./.^.v.c < 2 q 3 i Q A.E.^.).).).^.E.R.E.).].`.E.^.].`.`.`.`.`.",
"B.I.Y.E.`.).`.`.).`.^.R.B._ v ! S.E.E.R.A.! k 6 9 9 6 h b / b.n.S.Y.R.E.).`.`.`.`.{.`.`.`.`.`.`.).`.",
"R.E.E.^.).`.).^.E.).`.).).S.E Q v.m.3.) / g h 6 s j x @.G.g.f.Z W ` ` n.E.`.`.`.).).`.].`.).^.E.).E.",
"`.).^.).).`.).E.U.E.).`.).E.v.W E Y = , g.;.V O.:.<.G.>X,X=Xp., ] ] n ^ Y.).`.`.`.^.).`.`.).^.R.R.E.",
"^.).`.).E.E.E.E.U.R.`.].`.`.E.I.N.x.: -.,X>X&X>X&X&X<X-X;X;X X, v.} c m ` S.E.`.`.`.`.`.`.`.).R.U.E.",
"`.`.].).R.U.R.^.R.^.`.`.).).`.).E.) & 1.f.&X=X-X-X-X-X-X*X Xi.$.Y m z J z Q N.).^.^.E.^.`.`.).E.E.E.",
"`.`.`.^.R.R.E.`.).`.`.`.).`.`.`.m.* & @ ; > w.i.i.i.p.p.r.#.; O g 1 K H 5 f ! A.R.R.U.Y.E.`.).^.`.).",
"`.`.).).E.E.).`.`.`.`.).`.].`.U.T a.%.# . . # o @ $ $ =. .X   + p 4 w D K L S m } U.U.U.R.^.`.`.`.`.",
").`.`.^.E.`.`.).`.`.`.).`.{.).N.Z +Xg.w.- % % O o o o ..q. .q.D.a e 8 t P L h d m Y.T.R.E./.`.].).`.",
"`.`.E.R.R.`.`.^.`.].`.^.`.].`.U.T y.oXd.q.=.d.d.XXd.p.XXOXOX+Xu.1 9 y y 9 4 l B m R.E.^.).`.).).`.`.",
"`.`.E.Y.Y.E.`.`.`.`.`.`.`.`.`.E.n.&.XXt.9.q.OX#X#X#X%X$X$X$Xd.y.d 3 0 7 t H z.j.( ^.`.`.`.`.).^.`.`.",
"`.`.^.R.Y.Y.E.W.^.`.`.`.`.`.`.`.E.v.&.0...9.|.@X@X@X.X@X|.t.0.o.m v u r H l.H.h.v.`.].`.).`.`.`.).`.",
"].`.`.E.R.Y.Y.T.R.E.`.`.`.`.`.`.^.E.v., | ..r.t.}.}.e.e.e...o.' N.v.! N [ C.,.v.R.`.`.`.).`.).`.`.`.",
"`.`.`.`.E.R.Y.U.U.E.].`.`.).E.E.E.^.E./ > - , $.$. .| +.+.o.c.R.).^.Y.N.m.M.S.E.`.).E.E.).`.).).].`.",
"`.`.`.].`.E.R.Y.T.E.`.`.).E.R.U.Y.E.`.M.C : ' b.3.>.Z | X.,.E./.`.`.).).).`.`.`.`.^.R.R.E.).).`.`.).",
"`.`.`.`.`.`.^.E.E.^.`.`.E.R.U.U.U.E.).E.] ' Y.^.E.R.' = Y I./.`.`.`.).E.E.E.^.).).).R.Y.R.^.).`.`.).",
"`.`./.E.E.`.`.`.`.].`.).R.Y.Y.R.R.E.`.`.R.R.).`.`.).A.E x.E.`.`.`.`.`.E.R.R.R.E.E.`.E.R.E.).).).`.`.",
"`.`.E.R.R./.].`./.`.].`.R.Y.E.`.^.).`.).).`.`.).).`.`.`.`.`.).`.).`.].).R.U.U.U.R.).`.^.E.`.).).`.`.",
"`.`.E.R.T./.].`.`.`.`.`.E.E./.`.`.).`.`.`.).`.E.E.).`.`.`.E.E.^.`.).`.].E.R.U.U.U.E.`.`.).).).`.`.`.",
"`.`.E.E.E./.`.`./.`.`.`.`.`.`.`.`.).).`.).`.`.R.Y.E.`.).^.R.R.R.E.E.^.].`.E.E.R.Y.R.).{.).E.^.`.].`.",
"`.`.`./.E.`.`.`.`.`.`.`.`.`.`.`.`.`.`.`.^.`.`.E.Y.E.`.^.R.R.U.U.U.R.E.).`.^.E.E.E.^.).`.).E.E.E.).`.",
"`.`.`.W.E./.`.`.`.`.`.`.`.).E.E.`.`.`.`.^.`.`.E.E.E.`.).R.Y.R.U.U.U.R.^.`.).).`.].`.E.E.).^.R.U.E.`.",
"`.`./.R.R.E.`.`.`.`.`.`.`.W.E.T.E.E.).`.).`.].).).).`.).E.R.R.R.R.U.R.E.^.`.`.`.`.^.E.R.E.).Y.I.R.E.",
"`.`.E.Y.Y.R.^.`.`.`.`.`.`.E.R.U.R.Y.E.`.`.`.`.).`.`.).^.^.E.E.).R.E.E.E.R.E.).`.).).E.R.R.E.E.R.U.E.",
"`.`.^.R.U.R.E.`.`.`.`.`.`.E.E.R.Y.U.R.^.).`.`.).).).`.`.`.`.).).).`.`.).E.R.E.].`.`.E.R.R.`.`.E.R.E.",
"].)./.E.R.Y.E.`.`.`.).`.`.`.E.E.U.U.R.E.`.].`.`.`.`.`.).`.`.`.`.`.`.`.^.R.R.E.).`.).^.^.).`.^.^.`.)."
};
