/* XPM */
static char *_9c675a5acb84bfdf1588acafbd65282lKVI3ZozrHQbKp6Z[] = {
/* columns rows colors chars-per-pixel */
"50 50 233 2 ",
"   c #3D427B",
".  c #5B5A7B",
"X  c #5A5365",
"o  c #61597E",
"O  c #6C6B68",
"+  c #7A7668",
"@  c #696878",
"#  c #766C78",
"$  c #7A7777",
"%  c #6F7676",
"&  c #646B6A",
"*  c #857D75",
"=  c #847E6E",
"-  c #7A837E",
";  c #87846A",
":  c #89887A",
">  c #948C78",
",  c #9A9777",
"<  c #928F6E",
"1  c #A5997C",
"2  c #ABA57A",
"3  c #B5AB7B",
"4  c #BCB57E",
"5  c #D7BF77",
"6  c #DEC97B",
"7  c #E7D37C",
"8  c #483E83",
"9  c #484785",
"0  c #564B88",
"q  c #575687",
"w  c #5A5898",
"e  c #4B5583",
"r  c #625A98",
"t  c #615A8D",
"y  c #5A669A",
"u  c #5D618E",
"i  c #676788",
"p  c #736D88",
"a  c #6D728D",
"s  c #7A7788",
"d  c #64629D",
"f  c #68699C",
"g  c #72699B",
"h  c #6B7399",
"j  c #777A97",
"k  c #5C69A4",
"l  c #5F71A2",
"z  c #6464A3",
"x  c #6A64A5",
"c  c #6C6DAB",
"v  c #686BA5",
"b  c #756DAB",
"n  c #6B73A3",
"m  c #6C75AA",
"M  c #6878AB",
"N  c #747CA6",
"B  c #7D79A5",
"V  c #7574AD",
"C  c #7B7DAC",
"Z  c #7776A9",
"A  c #746CB2",
"S  c #747CB3",
"D  c #7B7CB4",
"F  c #7C7CBA",
"G  c #7677B7",
"H  c #6F6EB2",
"J  c #777BC0",
"K  c #847B85",
"L  c #847B96",
"P  c #847BA9",
"I  c #837BBD",
"U  c #857CB8",
"Y  c #867FC3",
"T  c #7B8399",
"R  c #7C8388",
"E  c #7982A9",
"W  c #7C83B3",
"Q  c #7C84BB",
"!  c #7D8ABB",
"~  c #7784B7",
"^  c #7F93BD",
"/  c #6E82B4",
"(  c #7E8CC5",
")  c #7D86C5",
"_  c #7F93C9",
"`  c #81848B",
"'  c #888685",
"]  c #928D82",
"[  c #988B8A",
"{  c #9A9788",
"}  c #888797",
"|  c #899297",
" . c #959597",
".. c #918A92",
"X. c #A39B8B",
"o. c #A69B84",
"O. c #A59C96",
"+. c #98A38E",
"@. c #A8A488",
"#. c #B4AA88",
"$. c #BAB48B",
"%. c #BCB788",
"&. c #AFA493",
"*. c #A5A699",
"=. c #B6A897",
"-. c #BBB899",
";. c #838AAC",
":. c #8B8EAC",
">. c #8888A6",
",. c #998FA4",
"<. c #908FAE",
"1. c #8C92AC",
"2. c #8992A6",
"3. c #9594A2",
"4. c #9796A8",
"5. c #8383B3",
"6. c #858BB5",
"7. c #8B8CB4",
"8. c #828DBB",
"9. c #8D8DBB",
"0. c #8283BA",
"q. c #938EB3",
"w. c #9489BB",
"e. c #8C93B4",
"r. c #8592BC",
"t. c #8B93BC",
"y. c #8A99B8",
"u. c #9293B3",
"i. c #9295BB",
"p. c #9899B7",
"a. c #A09DA4",
"s. c #9DA3AB",
"d. c #A8A5A6",
"f. c #B2ADA6",
"g. c #A9B2AE",
"h. c #B6B8A9",
"j. c #AAABB8",
"k. c #B3AAB2",
"l. c #B6B3BB",
"z. c #A5B1BD",
"x. c #C4B58E",
"c. c #C7B787",
"v. c #C3BA95",
"b. c #C3BCA8",
"n. c #D8C88A",
"m. c #CBC39B",
"M. c #CAC795",
"N. c #D4CA94",
"B. c #D7C998",
"V. c #DBD59B",
"C. c #CDC187",
"Z. c #EAD682",
"A. c #ECDA85",
"S. c #EAD389",
"D. c #EDDC8B",
"F. c #E4D689",
"G. c #F2DE85",
"H. c #F2DD8C",
"J. c #FADF8A",
"K. c #ECDD92",
"L. c #E3D69B",
"P. c #E3DC9C",
"I. c #ECDD9A",
"U. c #E6D894",
"Y. c #F3DE92",
"T. c #F3DF9B",
"R. c #E3CC80",
"E. c #EEE38C",
"W. c #EEE387",
"Q. c #F4E38D",
"!. c #F9E38D",
"~. c #F5E98D",
"^. c #F4E287",
"/. c #EDE494",
"(. c #EDE29B",
"). c #E7E698",
"_. c #F5E595",
"`. c #F4E393",
"'. c #F9E394",
"]. c #F4E993",
"[. c #F6E599",
"{. c #F3E49A",
"}. c #FAE49A",
"|. c #F3EA9B",
" X c #FBEA98",
".X c #CCC8A5",
"XX c #D4CCA6",
"oX c #DBD2A3",
"OX c #D9D7A6",
"+X c #C9C8B5",
"@X c #D9D6B4",
"#X c #D4CEB2",
"$X c #E2D5A2",
"%X c #E4DBA1",
"&X c #ECDDA2",
"*X c #E6DAA9",
"=X c #ECE2A3",
"-X c #E9E4A5",
";X c #F4E4A2",
":X c #F7E6A4",
">X c #E9E6B3",
",X c #8582C4",
"<X c #858DC3",
"1X c #8B8DC5",
"2X c #848CCA",
"3X c #8B8CCA",
"4X c #8A87C5",
"5X c #928DC7",
"6X c #8492C3",
"7X c #8B93C3",
"8X c #8C99C5",
"9X c #8492CB",
"0X c #8B94CB",
"qX c #8B9ACB",
"wX c #9295C2",
"eX c #9293CB",
"rX c #939BCB",
"tX c #969AC4",
"yX c #8B95D2",
"uX c #9397D4",
"iX c #A69FCC",
"pX c #A8A7C1",
"aX c #AEB7C0",
"sX c #B9B9CA",
"dX c #ABB1D4",
"fX c #B8BBD9",
"gX c #A8AAD7",
"hX c #AEB5E1",
"jX c #ADB2E3",
"kX c #9EABCD",
"lX c #C2BDDB",
"zX c #CFD1CB",
"xX c #DFE5D9",
/* pixels */
"^.Q._.[._._.`.~._.Q.E.~.~.Q.`._.`._.(.(.[._.!.J.!.^.Q.`._.K.`. X~.Q.Q.Q.'._._.`.Q.'.`.`.'.'._._._._.",
"Q.~.[.[._.'.~.Q.D.Q.`.`.Q.Q._.[._.[.|.[._.`.!.!.G.!.'.`.`.[.[.Y.~.`.`.`.'.'._.`._.`.`.`.`.'._._.'.'.",
"`._._._.'.Q.Q.^.D.`.[._.`._.[.[.'.`._.[._.`.!.'.}.}.[._.`.`.'. X_.[.[.[._.`.'.`.`.^.D.Q.`.`._._.'.`.",
"_._.{._.'.!.Q.Q.Y.[.}._.'._.}.Y.'.Q.`.`._._.Q.H.Y.[.[.[._._.Q.H._._.`.`._.'.'.`.~.A.A.Q.`.`.`._.'.'.",
"[._.[._.~.Q.Q.!.}.T.Y.Y.'.'.'.'.!.!.Q.Q.[.}.}._.~.Q././.(.`.Q.!.!.A.Z.A.Q.`.`.`._.E.Q.Q.Q.E.D.Q.`.`.",
"[._.`.`.H.A.G.Q.'.}.'.'.!.~.'._.'.'.Q.D.K.I.{.`.Q.`.(.-X-X=X[.Q.Q.7 7 A.^.`.`.Q.`.`.`.`.`.^.^.Q.`.`.",
"`.`.`.`.A.7 Z.H.Y.'.'.!.Q.Q.`.K.&X$XL.(.|.|.[.{.[.P.m.#.#.m.P.(.'.A.Z.A.Q.~.Q.`.`.`.`.`.`.`.`.`.`.`.",
"Q.Q.`.`.A.6 Z.'._.'.Q.^.Q.].U.N.1 > , v.P.(.{.{.N.1 ] k.f.> , M.:XY.Y.'.`.Q.Q.`.`._._.`.'.'.'.'._._.",
"~.Q.`.`.D.A.D.`._._.~.Q./.P.%.> k.sXl.{ #.-XU.P.o.d.lXfXfXsXl.> N.:XT.Y._.`.Q.`.'._._._.[.'.'.'._._.",
"Q.Q.`._.`.H.`.`.'.`.Q.|.-X%.: l.dXtXtXpX] $.;X4 [ iXiXgXjXdXfXa.x.:X{.[._. XQ.'.'.'.H.S.D.'.'.'._._.",
"!.'.'._._.`.`.`.`._.].(.oX> sXhXrX0X8.i.j.X.%X3 L 5XeX<X0X0X7X .3 D.`.D.A.Q. X'.'.'.S.5 6 H.'.!.'.`.",
"'.'.'.`.`.`.Q.~.'.`._.(..XO.dXuX2X( qXr.p.$ V.2 j 5X<X0XyXQ 7.' %.|./.A. XQ.D.'.}.T.S.6 R.H.!.!.'.`.",
"'.'.'.'.Q.`.Q.`.'._.`.=Xm.O.pX1X0X6X6Xy.>.$ @X@.j eX0X0X0X6. .; M.).)./.F.`.`._.Y.'.Y.H.'.'.Q.Q.'.'.",
"'.'.'.`.Q.~.`._._.'.D.{.N.; 3.7.t.rX8.e.p.` +X{ >.<X<X! t.T = b..X, , %.P.|. XQ.'.'.'.'._.'.Q.`.'.'.",
"'.`.`.Q.Q.~._.}.}.Y.A._.P.2 O  .} e.7X7X9.p a.` :.t.qXr.i  ..X=.# >.d.: $.&X{.H.!.!.Q.H.'.Y.`.[._.`.",
"Q.'.`.Q.^.Q._._.}.Y.Q.D.|.P.-.{  ...j E 9.;.j T e.t.6XN T g.{ K w.4Xi.4.+ XXI. XQ.Q.Q.Q._.[.`.[._.'.",
"J.!.Y.[.D.Y.'.'.`.`.'.'._.&X@X+X#X@X+X' E 7XrX6.7.7X7X8.h j :.7.5X4XwX1.s &.=X`.`.~.Q.!.'.H.'.`.'.'.",
"'.!.`._.`._.'.Q.~.Q.`.[.(.%.+ + > -.#X] e.1X1Xm f W 9X<X6X8.7X1X0X0X8X;.} = $X{._.`.E.Q.!.H.Q.`.'.`.",
"^.Q.Q.E._._.Q.G.^.].|.L.%.+ | 1.} p $ @ t.7X0X! e y ~ uX6X7X7X1X1X0X! ;.s : *X:X/.`.W.Q.Q.H.`./.`.'.",
"E.Q.].E._._.Q.!.Q.E.|.OX: } e.6X8X;.:.u.9.1X1X~ l y _ ( 3Xm V Q yX! 8XT % @.*XU._.`.^.~.!.Q.[.[.`.'.",
"|.[._.Y.`.'.H.'.!.'._.M.O ;.! r.y.e.1.i.<X0X0X9XqX/ 9XuXy D S v ) Q E j O XXU.Z.^.Q.H.'.'.`.[./.`.`.",
"(.(.`._.`.[.S._.'.H.(.$.s W qX^ ^ r.r.8XeXc c _ _ 6XqXQ d 3X<Xf n C j % &.$XK.7 G.!.}.:X:X{.{./.`.'.",
"/._.~._.F.N.c.L.}.Y.:X-.@ N S 9X_ 9X) G M y k l 9X0X1XeXz F 9Xy . ` $ : M.V.U.}.'._.&X$XL.L.{._.`.`.",
"/.|.D.n.2 1 , .X&X&Xx.] >.W S G F ) J J w M ~ y yX0X1X1X3Xw <Xh ..f.*.+.@., #.B.;XL.v.@.o.$.V._.`.`.",
").(.N., k.j.j.: XXM.{ sXhXjX0XZ C D F w y ~ k ) eX5X9.9.3X) k j *.@X*.g.z.sXf.&.*X%. .j.aX*.2 I._.`.",
").P.$.l.pXt.wXz.@., 3.i.rXgXdXa } i e f ~ S 9 G ,XeXt.7X1X9X  :.{ XX' z.kXi.<.' -.> s.t.r.pX@.C.{.`.",
").%XX.k.<.t.8.e.+.: :.wX6.u.| h.h.` j C v c w A Y D E E ~ G 9 P > XX: 2.8.6Xi.} h.' e.9X9XwXO.M.{.`.",
"|.%Xo.' 4.u.r.y.| | 6.eXp.} f.zXxX` j Z t w r 8 x 0.N N W 9 w q $ b.d.j 8X7X6.j d.s y.6X7X1.> C.{.Q.",
"[.(.oX, + - 2.:.@ j 9.7.} zXxX4.1.h V F b r d V x 0 v u   9 0 0 p L ` 3.i t.8X7.a p 3.R % ; 3 I._.`.",
"[.;XM.-.h.g.a i.e.e.1XwXp.zX} 1.7.1Xc A D 0.D 1X4X4XV D U U I U 5Xu.} s a h r.7X6.u.`  .h.-.m.V.{.`.",
"I.V.X.' R 2.h 0X<XM S <X9.6.t.r.rX0.0 w v D W eXuX3XA x g b Y G 2X0Xi.7.7.8.^ M <X9.>.} 4.| s &.L.Q.",
"&X2 ..u.1.e.1X2X_ M v 1X0X8.8.8X8.0.w w V D ! 7X3X4Xw 0 r V 4Xc 9X( 7X8.8.7X/ y S eXt.7.:.u.7.K N.D.",
"@X: } 7.r.r.qX2X_ _ _ ! S n n 8.W m V F Q D D 3X3X3X3X3X3XyX2XS S 8.W h y 6X6Xr.7X! 8X8Xr.7X<Xs 3 D.",
"OX{ s 7.7.t.~ k l ! 9XqXm 6.q j h h C W V z w w z F 3X3X1X0X7XW a j h E / 6X<X7Xm n M ! 6X! W s c.`.",
"-X$.* L P D c z m ! 3X3XD ;.@ 3.` s s j B r 0 w w I eX5X7.e.2.} + *.} j n <XeX1XD V w S W B s : N.`.",
"(.%X#.' p t x ,Xw <XuX3X1Xj s +X+X{ + # L L P P w.w.q.4.3.$ $ { XX@XO.} U 3X5X5XG z F d . p : m.I.`.",
"Y.|.-XoXd.j g d w F G Y I B # b.>X-XM.2 ; + + $ * ' * + < #.M.P.-X$XX.s P ,XY J A r r B @ h.$XI.[.`.",
"[.K./.V.: p n y w c H G w q X .XL./.(.(.L.V.B.m.m.m.B.$X-X(.).|.[.=XX.X 0 x A A x r x B X -.%X_._.`.",
"D._.[.%.@ q c F 1XQ F G V Z p b.&X`.Y.{.|.I.=X=X&X;X;X(.(.(.{._.`.P.{ L V F C 5.7.W F r o # oX{.`.`.",
"Q. XF.< s d x F <X7Xv w d q.3.&.&X_._._._.`._.F.`./.`.[._._._._._.%X[ p.V w u E i.W G d i K #.T.`.'.",
"Q._.U.1 s U I c F 0.0.C :.4.# @.T.Q.Q.'.`.`.`.`.Q.`.`.Q.'.`.'.'._.L.= >.9.D C 6.E Z D U j ' x.I._.'.",
"~.`.|.v.[ L g i q g 7.q.,. .* $.{.Q.Q.Q.Q.Q.`.Q.`.`.~.Q.'.!.Q.H.D.&X, ..<.tXu.j . i a L ' o.B.:X_.`.",
"'.Q.`.U.x.&.] K L } ,...[ 1 #.&X[.'.'.'.'.'._.`._.`.`.`.'.'.H.A.S.:XM.@.] ..,.,.} K $ ; 2 n.[.H.'.`.",
"'.H.^.A.U.%XB.v.&.&.=.=.x.c.n.:X_.'.'.`.'.'.'.'.`.Q.Q.Q.'.'.Q.D.H.`.I.%XoXv.=.O.O.=..XV.U./. XQ.'.`.",
"!.'.[.K.K.}.;X(.;X(.&XI.U.n.D.Q.`.`.`.`.Q.Q.^.^.^.~.~.~.~.~.'.Q.!.Q.]._./.I.&X&X;X=X(.)./.[.'.Y.'.'.",
"Q.'.}._.Q.Q.`.[.^.Q.~.`.'.D.!.H.`._._.`.`.Q.H.G.Q.~.~.~.Q.Q.Q.~.~.G.W.E.].[.`._.Q.^.Q.Q.`._.'.}.'.'.",
"`.`.`.`.~.~.K.[.`.~.Q.Q._._.}.H.`._._.`.'.'.Y.H.'.'.`.~.Q.Q.Q.Q.`.`.E.].].D.A.'.'.Q.~.Q.Q.^.A.H.'.~.",
"_._._.E.Q.~.`.{.Z.H.~.`._._.[.Y.`.`.`.`.'.'._._._.'.'.`.~.`.Q.^.H.[./././.`.Y._._.Q.~.E.Q.Q.A.Q.~.~.",
"'.`.`.`.Q.Q.`.`.`.Q.Q.`._.'.'.'.'.`.`.`.`.`.`.`.'.'.'.`.`.`.Q.Q.'.'.`.`.`.'.`.'.'.`.Q.Q.Q.Q.`.`.`.`.",
"'.'.'.'.`.`.`.`.`.`.`.`.`.'.'.'.`.'.`.`.`.`.`.`.`.`.'.`.`.`.`.`.'.'.'.'.'.'.`.`.`.`.`.`.`.`.`.`.'.`."
};
