/* XPM */
static char *_c1a6abfe3744fadc70c6558e2ccd9aaOyIrOEQPgnwcgkT6[] = {
/* columns rows colors chars-per-pixel */
"50 50 222 2 ",
"   c #46467F",
".  c #4D5877",
"X  c #666B76",
"o  c #4D4B87",
"O  c #524D8B",
"+  c #4C558B",
"@  c #4E598D",
"#  c #515386",
"$  c #53558C",
"%  c #535C8D",
"&  c #4F5891",
"*  c #565697",
"=  c #555A92",
"-  c #5A5B94",
";  c #5E5E9A",
":  c #635E98",
">  c #466A8A",
",  c #586595",
"<  c #5C659C",
"1  c #5C6A9D",
"2  c #5C7498",
"3  c #686795",
"4  c #63639D",
"5  c #646D9E",
"6  c #797E9A",
"7  c #625DA0",
"8  c #5F66A2",
"9  c #6365A1",
"0  c #6A63A1",
"q  c #646CA4",
"w  c #6A6BA3",
"e  c #666FAB",
"r  c #6C6FAA",
"t  c #716AAA",
"y  c #736FAA",
"u  c #6571A5",
"i  c #6A76A7",
"p  c #6D73AB",
"a  c #7273AD",
"s  c #7973AE",
"d  c #757AAD",
"f  c #7172B0",
"g  c #7374B2",
"h  c #7A75B5",
"j  c #747BB3",
"k  c #797BB6",
"l  c #7C7CBA",
"z  c #8B7D86",
"x  c #807D9D",
"c  c #807AB6",
"v  c #857EBA",
"b  c #857EC1",
"n  c #7F8B8E",
"m  c #78859A",
"M  c #5C8BA3",
"N  c #6A88AB",
"B  c #7D8CA3",
"V  c #7687AC",
"C  c #7B8DAD",
"Z  c #7A91AC",
"A  c #6C82B3",
"S  c #6588B3",
"D  c #7B83B3",
"F  c #738DB6",
"G  c #798CB5",
"H  c #7484B8",
"J  c #7D85BB",
"K  c #768CBC",
"L  c #7B8BBB",
"P  c #6F9BB5",
"I  c #7C92B2",
"U  c #7594BD",
"Y  c #7C93BD",
"T  c #7898BA",
"R  c #7BA0BA",
"E  c #7C85C2",
"W  c #7E8DC2",
"Q  c #7B94C3",
"!  c #7E9AC4",
"~  c #968C8C",
"^  c #818B97",
"/  c #858999",
"(  c #948C92",
")  c #8E9396",
"_  c #9D9C9C",
"`  c #A29C8C",
"'  c #9CA49E",
"]  c #AEAB8F",
"[  c #B8A98D",
"{  c #B6B28B",
"}  c #BDB28E",
"|  c #A5A39A",
" . c #ABA49A",
".. c #AAA99D",
"X. c #B4AC95",
"o. c #B3AB9A",
"O. c #B8A998",
"+. c #AFB399",
"@. c #BCB293",
"#. c #BDB39A",
"$. c #B9B899",
"%. c #8484AB",
"&. c #828CA9",
"*. c #8A8BAB",
"=. c #8A95A5",
"-. c #8495AB",
";. c #8B9AAD",
":. c #9697A6",
">. c #8085B5",
",. c #838EB5",
"<. c #8C8BB1",
"1. c #8381BC",
"2. c #8883BD",
"3. c #838CBC",
"4. c #8594B4",
"5. c #849BB2",
"6. c #8A9DB2",
"7. c #8292BC",
"8. c #8A97B8",
"9. c #859CBA",
"0. c #9399B3",
"q. c #9B9AB5",
"w. c #9B9CBC",
"e. c #AA9DA3",
"r. c #9CA6A4",
"t. c #9BA5AC",
"y. c #8AA4B6",
"u. c #83A0BB",
"i. c #8BA5BB",
"p. c #9CABB2",
"a. c #95A7B8",
"s. c #98B5BC",
"d. c #A6A8A6",
"f. c #A4A2AD",
"g. c #B6AAA3",
"h. c #A8B2A5",
"j. c #BAB4A2",
"k. c #B6B8A6",
"l. c #A2A9B7",
"z. c #AFBEB2",
"x. c #C5B88E",
"c. c #CABB8F",
"v. c #DDBE8F",
"b. c #C1AB98",
"n. c #C3B495",
"m. c #C5BA96",
"M. c #C5B39A",
"N. c #CBB59C",
"B. c #CBBC9A",
"V. c #D3BB95",
"C. c #DEBF91",
"Z. c #D6BC99",
"A. c #D5BC9D",
"S. c #C3B4A2",
"D. c #C8BAA4",
"F. c #D1BCA0",
"G. c #ACC09E",
"H. c #B0C0B3",
"J. c #B1C2B2",
"K. c #D4C294",
"L. c #DDC193",
"P. c #D2C19B",
"I. c #DDC49D",
"U. c #DFC99C",
"Y. c #E3C495",
"T. c #E5C799",
"R. c #E8C799",
"E. c #E6C99B",
"W. c #EBCC9D",
"Q. c #CBC2A5",
"!. c #D3C2A1",
"~. c #DCC6A1",
"^. c #DDC9A1",
"/. c #E4CBA1",
"(. c #EECFA0",
"). c #F0CFA1",
"_. c #EFD0A1",
"`. c #F1D1A2",
"'. c #8384C1",
"]. c #8A85C2",
"[. c #848BC3",
"{. c #8B8DC4",
"}. c #848DCA",
"|. c #8B8ECB",
" X c #948DCB",
".X c #8493C4",
"XX c #8A94C4",
"oX c #839AC5",
"OX c #8594CB",
"+X c #8C93CB",
"@X c #869BC9",
"#X c #8C9BCB",
"$X c #9293CD",
"%X c #939ACB",
"&X c #989CC8",
"*X c #8394D3",
"=X c #8C96D2",
"-X c #8C9BD3",
";X c #9495D1",
":X c #929CD3",
">X c #989AD7",
",X c #A09EC3",
"<X c #83A2C3",
"1X c #89A8C7",
"2X c #85A2CB",
"3X c #9AA4C7",
"4X c #93A4CB",
"5X c #8EB3C4",
"6X c #8AA1D1",
"7X c #94A3D7",
"8X c #9AA6DB",
"9X c #A4B9CB",
"0X c #A3A5D9",
"qX c #ADBED8",
"wX c #9EA9E2",
"eX c #A5B8E2",
"rX c #9BC4CA",
"tX c #9CC7D6",
"yX c #B5CEC8",
"uX c #A6CBD7",
"iX c #B6CAD6",
"pX c #B1C8EA",
/* pixels */
"_.`.`.`.`.`.`._._._.`.`.`.`.`._.`._.).`._.`.`.`.`.`.`._._._.`.`.`._.`.`.`.`.`.`.`.`.`.W.W.W.(.`.`.`.",
"`._._.W.W._.`.`._.`._.`.`._.`.`.`.`._.`.`.`.`.`.`.`.`.`.).`.`.`.(._.`.`.`.`.`.`.(.W.R.Y.T.R.W.W.`.`.",
"`.W.R.Y.L.Y.W.`._.`.`.`.`.`.`.(._.`.`._.(.`.`.`.`.`.`.`.`.`.`.`.`.`.`._.`._._.W.R.Y.L.L.Y.T.T.W.`.`.",
"`.(.R.L.v.C.T.W.`.`.`.`.`.`.`.`._.`.`.`.`.`.`.`._._.`.`.(.W.W.(.`.`.`._._.`.(.W.Y.Y.Y.Y.R.R.R.W.(.`.",
"(.(.(.W.R.Y.Y.T._.`.`._.`.`._._.`._._.`.`.`.`.`._.`.`.(.R.Y.T.W.(.(._.`.`.`.`._.W.R.W.W.W.(.W.(.`.`.",
"`.`.`.`.`.W.Y.T._._.`.`._.`._._.W.W.R.W._._._.`.`.`.`._.R.Y.Y.Y.T.W.(._.`.`.`.`.`.`.`.`.`._.`.`.`.`.",
"`._.`.`.`._.(.(._.`.`.`.`.`.`.(.R.Y.Y.T.W.W.(._.`.`.`.`.(.W.Y.L.L.Y.W.`.(.W.W.(.`.`._.`.`.(.`.`._.`.",
"`._._._.(.`.`.`._.`.`.`._.`._.W.Y.Y.Y.Y.Y.Y.R._.`.`._.`.`._.W.T.Y.W.(._.W.T.R.W._.`._._.`._.`.`.`.`.",
"`.`.`.`.`._.`.`.(.W.W.W._.`._.R.Y.W.R.L.v.Y.W.`.`._._._.`.`._.`._._._._.W.R.R.W.`.`.`._.`.`.`.`.`.W.",
"`.`.`._._.`.`.`.W.Y.Y.W.`.`._.(.W.(._.W.W.W.(._.`.`.`._.`.`.`.`._._._._.(.W.W.(.`._.`.`.`.`.`._.W.W.",
"`.`.`.`.`.`.`.`.(.Y.T._.`._._.`.`.`._._.`.`._._.`.`.`.`.`._._._.`.`.`.`.`.`._._.`._.`.`.`.`._._.(.W.",
"`.`.`.`.`.`.`.`._.W._.`.`.W.(.`.`._.T.W.`._.W.W._.`.W.K.c.c.K.W.`.`.`.`.`.`.`._._.(.W.W.W._._.`.`.`.",
"`.`.`._.`.`.`._._._.`.`._._.`.`.U.} +.$.x.K.Y.R.W.W.x.J.yXyXh.$.K.`.`.`.`.`.`.`.(.W.Y.Y.Y.R.(.`.`.`.",
"`.`.`._.`.`.`.`.`.`.`.(.(.`.`.L.] iXiXs.J.{ V.Y.W.c.J.iX9XqXiXyX$.R.(.`.`.`.`.`.W.W.Y.C.L.Y.W.W._.`.",
"`.`._.`.`.`.`._.(._.`._.(.`.W.{ iX3XV 9.-.h.x.W.E.} p.C @X.X4Xp.{ K.W.(.`.`.`.`.(._.W.R.Y.Y.R.R._.(.",
"`.`.`.`.`._.`.W.Y.W._.`._.(.K.G.9X4..X#XV l.m.E.U.@.a..X}.-XD p.} Y.W.(.(.`.`.`._.`.`.`._.R.R.W.`.`.",
"`._._.`.`._.W.T.L.T.W._.(._.K.k.;.4..XQ oXt.m./.^.#.8.*X*X=X8.o.K._.`.`._.(._.`.`.`._.`.`.`._._._.`.",
"`.`.`.`.`.`.(.W.Y.Y.v.C.T.(.U.} r.Z @X6XF a.@.^.!. .6XOXOXY _ [ E.W.E.U.W.`.`.`._._._._._._._.`.`.`.",
"W.R.R.(._._.`.`.W.Y.L.Y.R._.`.K.@...=.I oX1Xd.j.| 0.L .X7.) [ P.V.n.X.h.$.I.`.`.`.`._.`.`.(.`.`.`.`.",
"R.Y.T.(.`._.`.`._.W.W.W.(.`.`.(./.P.o.' n 9.4.&.,.XX#X3.-.~ #.[ | ;.9.5.d.n.E.W.W.`.(.`.`.W._._.W.`.",
"W.R.W.`.`.`.`.`.`.`.`.`.`._.`.`.W.P.k.h.r.m 4.%XJ [.+X:X.X&.) 0.oXOX+X3.a.@.K.Y.Y.R.W.`._.W.W.W.R.W.",
"`.`.W.R.W.`.`.`.`.`._._._._./.P.n.X.` ' n B 4X3.[.4 p J [.XX#X.X+XE =X+X;.X.c.Y.Y.Y.W.`.`.W.W.R.R.W.",
"(.W.T.Y.R._.`.`.`.(._.`.`.`.B.d.y.9.5.B B ,.3.+XD $   +X.X.X.Xj =X|.}.W :.@.K.R.R.R.W._.`.`._.W.W.(.",
"Y.Y.Y.T.W._.`.`.`.(.`.`.`.U.#.9.Q @XoXY #XXX{.+XJ +Xi J #XL + 8 e +XJ V ..x.R.W.(._._._.(.`.`._._.`.",
"v.v.Y.W._._.`.`._.`.`._.`.B.| Y oXQ @X.X[.#XXXf [.}.}.}.>X= }.:X@ V 4.d.m.E.W.W.`.`.`.`._.`.`.`._._.",
"Y.Y.W._._.`._._._.`.`.`./.m.| C G 7.XX[.J [.= & e =X:XOXE e r 7X6 ~ O.B.I._.`.`.`.`.`.`.`.`.`._.(.`.",
"(._.(._.`.`./.I.W.(.`.`.~.O.:.&.i G d j |.8 = J + -XW OX:X+X$ 7.-.| D.!.!.~.E.`.`.`.(.`././._.W.W.W.",
"`._._._._.$.s.tXk.T._./.z.uXpX4XN N L j 8 + J , u #XL OX[.+X>.D 6.| D.j.rXtXuXQ.`.`./.J.rXuXM.W.W.R.",
"(.`._._.B.uX1XN 5XS./.!.a.I 4XeXI 2 , 1 < k {.4 5 XXXXXX3.%X&X1 -.| j.k.tX1XR s.I.E.Q.s.F <XrX^.W.R.",
"`.`.`.W.m.5XN ! T t.!.#.i.9.Y U 2 Z i 1 J r 4 - # d D d 3.{.w % C ) k. .y.U Y i.M.I.g.<XQ oXs.^.W.W.",
"`.`._.W.I.h.u.U ! -.X.' u.Y F S P M > , J * * O o ; a J d w o + . X r.h.B Q 8X2X..M.t.Y @X6.j.(.`.`.",
"`._.(.W._./.S.=.F 4.^ u.Y F S S M P N 2 j '.f t b l ; = 4 4 O 4 % Y 5.^ B A OXoXu.=.5.I / O.E.`.`.`.",
"`.`.`.(.`.~.F. .m 2XY G XXXXY F oXG %X5 $ y c v ;X$X$X'.1.2. X].D #XY 2X@XA L #XY U <Xm _ M.F./.`.`.",
"`.`.R.R.g.i.6.^ G oXL , %X:X#X.X.X.X%X, o : 2.c {.+X[.; o   0 ].q .XwX7XOX8X[.u & W ! I m i.a.S.`.`.",
"`.W.R.V.y.U oX6X#XOX$X0X[.+Xp u Q 6XA 1 k a s 2.{.;X$Xg a k |.+XJ [.#X.Xq q $X1.l +XOX6X2XU U a./.`.",
"`.(.W.Z.y.U K J [.9 '.$X[.j l >.:.f.:.V H J a 0 0 ; l >X;X|.+XE OX8.q.( J p l  X;Xp < H K Q Q t._._.",
"`.`._.W.g.G H [.= a q +X;X+Xe XXM./.A.f.,.p $ o O O 0 |.'.+X=X#Xl.A./.N.XXj [.;X;X9 q < Q V 6.S.`.`.",
"`.`.`.).T.d./ + g w r :X[.[.j 0.Z.(.`.(.N.f.0.*.%.XX+X3X&X3Xf.M.W.`.`.I.0.j +X[.{.r j i 6 g.F.`._.`.",
"`.`.`.`._.W.b.>.w - = p @X.Xx e.L.W._._.`.`./.I.A.S.N.A.I.`.(.W._.`.`._.S.%.J [.1.- - q *.Z._.`._.`.",
"`.`.`.`._.(.V.%.w 4 u 5 5 5 z [ V.W.(.`.`.`.`.`.`.`.`.(.`.`.`.`.`.`.`.(.V.~ u w 4 4 w p :.V.W.`.`.`.",
"`.`.`.W.(.W.O.3 s v ;X{.w a 1.3XM.W.`.`._.`.`.`.`.`.`.`._.`.`.`.`.`.`.A.w.j a t  X Xv y ~ M.W.`._.`.",
"`.`.W.R.W.S.<.4 s v $X].4 w $X0XA._.`._._.`.`.).(.`.`.`.`.`._.`.`._.`.N.%Xa ; y b ;X].h y 0.~._.(.`.",
"`.`.R.R.W.T.w.E g 4 - l 0X>X;Xq./.`._.`.`.`.`.(.W._.`.`.`.W.W._._._.`.T.&X>X'.'.b 7 * h }.w.(._.`.`.",
"`.`.W.W.W.`.T.e.<.4 a ;X8X&X,XS.`._.`._._.`.`.W.R.W.`._.W.W.R.R.W.W.(.`.j.&X$XwXl 9 d <.d.I.W._.`.`.",
"`.`.W.W.W.`.`.`.E.O.e.e.b.I.`.).`.`.`.`._.`.`.W.R.R.`._.W.W.R.Y.Y.R.W._.`.`.I.N.g.O.V._.`.W.W.W.(.`.",
"`.`.`.(.).`.`.`.`.`.`.`.`.`.W.W.`.`.`.`.`.`.`.(.R.R._.`.W.W.R.Y.Y.Y.R.W.(.`._.(.`.`.(.W.W.`.W.R.R.W.",
"`.`.(.W.W.).`.`.`.`.`.`.`.).W.W.W.W._.`.`.`.`.`._._._.`.W.Y.R.R.R.Y.Y.Y.R._._.`.`._.W.W.(.`.W.Y.Y.W.",
"`.`.R.T.R.W.`.`.`.`.`.`.`.W.R.Y.R.R.W._.`.`.`.`.`.`._.`._.R.R._.W.R.R.R.W.W.`.`.`.W.`.W.W.R.W.W.R.T.",
"`.`.R.Y.T.W.(.`.`.`.`.`.`.W.R.Y.T.R.W.(._._._._.(.`._.`.`.`.`._.(.`.`.`.(.W.W.`.`.`.`.W.T.T.(.`.W.T.",
"`.`.W.R.T.R.W.`.`.`.`.`.`.`.W.R.Y.Y.Y.W.`.`.`.`.`.`.`._._.`.`.(.`.`.`.`.(.R.T.W._.`.`.(.W.W.`._.W.(."
};
